<?xml version="1.0" encoding="UTF-8"?><svg xmlns="http://www.w3.org/2000/svg" xmlns:xlink="http://www.w3.org/1999/xlink" contentScriptType="text/ecmascript" width="1805.25" zoomAndPan="magnify" contentStyleType="text/css" viewBox="0 0 1805.25 618.749987" height="618.749987" preserveAspectRatio="xMidYMid meet" version="1.0"><path fill="rgb(73.728943%, 82.348633%, 77.648926%)" d="M 817.265625 526.042969 C 803.59375 527.195312 790.234375 529.433594 776.867188 532.484375 C 765.496094 535.082031 752.304688 535.117188 741.960938 540.898438 C 718.269531 554.148438 737.867188 565.894531 755.082031 571.632812 C 776.835938 579.160156 802.769531 578.324219 825.359375 578.324219 C 866.351562 578.324219 906.507812 578.324219 947.5 578.324219 C 958.734375 578.324219 1052.75 571.652344 1046.21875 549.886719 C 1043.710938 541.523438 1034.507812 533.996094 1026.976562 531.488281 C 997.203125 521.566406 965.078125 524.613281 934.195312 524.625 C 906.828125 524.632812 879.453125 524.429688 852.085938 524.816406 C 840.488281 524.976562 828.832031 525.070312 817.265625 526.042969 Z M 817.265625 526.042969 " fill-opacity="1" fill-rule="nonzero"/><path fill="rgb(32.159424%, 78.819275%, 79.60968%)" d="M 1110.824219 364.761719 C 1098.519531 404.667969 1073.644531 543.566406 1073.644531 543.566406 C 1073.644531 543.566406 1064.472656 545.332031 1063.414062 542.15625 C 1062.636719 539.058594 1077.464844 405.871094 1085.457031 364.761719 Z M 1110.824219 364.761719 " fill-opacity="1" fill-rule="nonzero"/><path fill="rgb(32.159424%, 78.819275%, 79.60968%)" d="M 1223.429688 385.210938 C 1223.429688 385.210938 1251.46875 583.609375 1250.410156 587.84375 C 1249.351562 591.019531 1240.175781 589.253906 1240.175781 589.253906 C 1240.175781 589.253906 1197.351562 390.527344 1196.292969 389.46875 " fill-opacity="1" fill-rule="nonzero"/><path fill="rgb(32.159424%, 78.819275%, 79.60968%)" d="M 1123.800781 385.210938 C 1123.800781 385.210938 1095.765625 583.609375 1096.824219 587.84375 C 1097.882812 591.019531 1107.054688 589.253906 1107.054688 589.253906 C 1107.054688 589.253906 1149.882812 390.527344 1150.9375 389.46875 " fill-opacity="1" fill-rule="nonzero"/><path fill="rgb(32.159424%, 78.819275%, 79.60968%)" d="M 1259.253906 346.878906 C 1256.003906 363.078125 1250.203125 378.0625 1239.472656 388.792969 C 1223.59375 406.78125 1191.839844 407.839844 1169.613281 411.015625 C 1139.972656 415.246094 1052.117188 421.597656 1063.761719 370.800781 C 1069.789062 344.507812 1096.386719 337.8125 1120.011719 336.375 C 1132.574219 335.609375 1145.964844 340.328125 1157.726562 339.484375 C 1169.847656 338.613281 1172.566406 325.5625 1175.078125 314.804688 C 1177.296875 305.316406 1176.402344 295.042969 1176.402344 285.175781 C 1176.402344 264.636719 1174.113281 244.179688 1176.402344 223.796875 C 1178.699219 203.339844 1194.964844 205.695312 1212.390625 208.921875 C 1223.539062 210.988281 1254.289062 216.226562 1260.847656 224.855469 C 1269.40625 236.121094 1264.902344 270.394531 1264.257812 284.355469 C 1263.40625 302.828125 1263.46875 325.875 1259.253906 346.878906 Z M 1259.253906 346.878906 " fill-opacity="1" fill-rule="nonzero"/><path fill="rgb(92.158508%, 62.748718%, 55.288696%)" d="M 995.390625 356.285156 C 976.257812 386.515625 993.050781 409.003906 1000.765625 431.730469 C 1008.480469 454.460938 1040.429688 516.316406 1039.695312 531.710938 C 1038.960938 547.101562 1023.746094 557.648438 1017.523438 564.90625 C 1015.492188 566.6875 1009.390625 572.039062 1013.746094 575.773438 C 1016.652344 578.261719 1024.988281 573.824219 1028.144531 572.496094 C 1035.238281 569.511719 1040.878906 565.28125 1047.308594 560.71875 C 1053.742188 556.15625 1059.773438 552.84375 1066.476562 548.941406 C 1073.179688 545.039062 1083.757812 539.816406 1075.414062 531.617188 C 1051.726562 508.34375 1065.347656 422.027344 1040.398438 381.15625 Z M 995.390625 356.285156 " fill-opacity="1" fill-rule="nonzero"/><path fill="rgb(92.158508%, 62.748718%, 55.288696%)" d="M 1065.230469 381.902344 C 1065.230469 405.84375 1056.992188 435.632812 1055.28125 459.574219 C 1053.570312 483.511719 1059.015625 552.914062 1052.367188 566.820312 C 1045.71875 580.722656 1027.601562 584.539062 1019.046875 588.816406 C 1016.484375 589.671875 1008.785156 592.234375 1011.351562 597.367188 C 1013.0625 600.785156 1022.46875 599.929688 1025.890625 599.929688 C 1033.585938 599.929688 1040.429688 598.222656 1048.125 596.511719 C 1055.824219 594.800781 1062.667969 594.089844 1070.363281 593.09375 C 1078.054688 592.09375 1089.828125 591.382812 1085.320312 580.59375 C 1072.523438 549.953125 1118.570312 475.679688 1111.4375 428.332031 " fill-opacity="1" fill-rule="nonzero"/><path fill="rgb(12.548828%, 22.349548%, 43.528748%)" d="M 1084.601562 577.796875 C 1078.675781 585.460938 1053.238281 598.351562 1030.933594 590.335938 C 1029.167969 589.703125 1025.113281 586.238281 1025.113281 586.238281 C 1025.113281 586.238281 1003.0625 593.878906 1009.675781 598.523438 C 1018.191406 604.5 1038.542969 601.890625 1043.828125 600.027344 C 1049.117188 598.160156 1066.710938 594.273438 1068.046875 594.691406 C 1070.835938 595.5625 1069.441406 598.871094 1069.617188 600.441406 C 1069.792969 602.007812 1082.84375 602.589844 1082.859375 600.441406 C 1082.875 598.292969 1087.5625 589.816406 1087.386719 584.414062 C 1087.214844 579.015625 1084.601562 577.796875 1084.601562 577.796875 Z M 1084.601562 577.796875 " fill-opacity="1" fill-rule="nonzero"/><path fill="rgb(92.158508%, 62.748718%, 55.288696%)" d="M 1073.394531 163.140625 C 1062.859375 184.8125 1027.378906 213.03125 1023.195312 234.632812 C 1021.769531 242.003906 1027.621094 250.738281 1033.734375 254.8125 C 1039.171875 258.210938 1071.355469 231.09375 1077.472656 226.335938 C 1085.628906 220.222656 1095.824219 212.746094 1101.261719 203.914062 Z M 1073.394531 163.140625 " fill-opacity="1" fill-rule="nonzero"/><path fill="rgb(97.648621%, 52.159119%, 61.959839%)" d="M 1203.597656 356.285156 C 1217.160156 338.632812 1214.3125 312.125 1200.71875 290.382812 C 1188.695312 271.148438 1178.230469 254.320312 1180.519531 230.664062 C 1182.488281 210.28125 1191.636719 191.203125 1192.617188 170.640625 C 1193.484375 152.410156 1192.613281 134.179688 1177.851562 121.15625 C 1174.378906 117.683594 1170.035156 116.816406 1167.429688 112.476562 C 1165.695312 108.132812 1167.429688 103.792969 1163.957031 100.320312 C 1158.746094 95.109375 1146.589844 102.054688 1141.378906 107.265625 C 1140.617188 108.027344 1140.535156 107.941406 1140.671875 107.691406 L 1108.378906 127.234375 C 1101.433594 127.234375 1097.957031 129.839844 1093.617188 135.046875 C 1083.195312 144.597656 1067.5625 154.148438 1063.222656 161.09375 C 1058.878906 168.039062 1072.773438 174.984375 1068.433594 184.535156 C 1064.089844 192.351562 1058.878906 200.164062 1060.617188 209.714844 C 1065.054688 231.910156 1078.171875 242.25 1082.828125 262.015625 C 1087.0625 279.988281 1013.386719 301.878906 995.496094 328.378906 C 980.394531 350.738281 960.3125 421.230469 970.53125 444.832031 C 982.457031 472.371094 1019.648438 438 1040.039062 457.027344 C 1052.273438 467.898438 1054.992188 485.566406 1063.148438 497.800781 C 1072.664062 511.390625 1086.257812 523.621094 1099.851562 530.417969 C 1112.085938 537.210938 1133.890625 540.375 1141.75 519.265625 C 1149.609375 498.160156 1121.675781 429.804688 1140.707031 405.339844 C 1157.019531 383.59375 1190.039062 373.9375 1203.597656 356.285156 Z M 1203.597656 356.285156 " fill-opacity="1" fill-rule="nonzero"/><path fill="rgb(97.648621%, 52.159119%, 61.959839%)" d="M 1140.675781 107.691406 L 1141.378906 107.265625 C 1141.382812 106.777344 1140.847656 107.371094 1140.675781 107.691406 Z M 1140.675781 107.691406 " fill-opacity="1" fill-rule="nonzero"/><path fill="rgb(91.758728%, 32.548523%, 35.289001%)" d="M 1062.707031 24.789062 C 1044.355469 20.03125 1027.363281 32.261719 1026.003906 51.289062 C 1025.324219 57.40625 1026.003906 62.160156 1029.402344 67.597656 C 1030.761719 70.316406 1032.800781 73.035156 1032.800781 76.433594 C 1032.800781 79.828125 1030.082031 81.1875 1028.722656 84.585938 C 1025.324219 91.378906 1028.722656 97.496094 1036.199219 98.175781 C 1044.355469 99.535156 1051.152344 95.457031 1055.230469 88.664062 " fill-opacity="1" fill-rule="nonzero"/><path fill="rgb(92.158508%, 62.748718%, 55.288696%)" d="M 1114.277344 69.152344 C 1110.894531 41.273438 1093.890625 25.679688 1065.582031 30.128906 C 1061.796875 30.722656 1057.800781 31.761719 1053.609375 33.289062 C 1038.476562 38.804688 1032.253906 54.648438 1038.113281 69.121094 C 1040.105469 74.046875 1043.097656 77.003906 1044.097656 81.929688 C 1045.09375 84.886719 1045.09375 85.871094 1044.097656 88.835938 C 1044.085938 91.546875 1039.269531 93.546875 1039.945312 96.328125 C 1040.664062 99.277344 1047.023438 98.734375 1049.207031 100.535156 C 1051.988281 102.832031 1048.648438 109.476562 1054.488281 108.160156 C 1052.117188 112.90625 1056.484375 112.730469 1058.925781 115.59375 C 1062.242188 119.480469 1062.011719 122.453125 1067.769531 122.707031 C 1074.105469 122.992188 1082.515625 116.117188 1088.847656 119.15625 C 1093.953125 121.605469 1099.664062 135.328125 1096.945312 140.765625 C 1094.328125 146.871094 1088.980469 152.253906 1088.109375 159.230469 C 1084.621094 176.675781 1144.28125 111.773438 1144.28125 111.773438 C 1118.105469 105.765625 1117.664062 97.03125 1114.277344 69.152344 Z M 1114.277344 69.152344 " fill-opacity="1" fill-rule="nonzero"/><path fill="rgb(12.548828%, 22.349548%, 43.528748%)" d="M 1044.46875 77.15625 C 1042.355469 79.269531 1045.511719 82.773438 1049.203125 80.925781 C 1051.195312 79.929688 1056.4375 76.40625 1058.679688 75.660156 C 1060.921875 74.910156 1066.59375 75.875 1066.03125 74.910156 C 1065.472656 73.945312 1057.683594 70.921875 1055.4375 71.171875 C 1053.691406 71.421875 1045.21875 76.40625 1044.46875 77.15625 Z M 1044.46875 77.15625 " fill-opacity="1" fill-rule="nonzero"/><path fill="rgb(12.548828%, 22.349548%, 43.528748%)" d="M 1050.609375 85.609375 C 1054.292969 86.691406 1062.28125 85.859375 1062.648438 80.792969 C 1062.675781 80.433594 1062.21875 80.1875 1061.925781 80.378906 C 1060.070312 81.578125 1059.15625 83.273438 1056.875 83.964844 C 1054.886719 84.566406 1052.800781 84.195312 1050.773438 84.390625 C 1050.097656 84.457031 1049.902344 85.402344 1050.609375 85.609375 Z M 1050.609375 85.609375 " fill-opacity="1" fill-rule="nonzero"/><path fill="rgb(12.548828%, 22.349548%, 43.528748%)" d="M 1053.726562 86.277344 C 1054.148438 86.980469 1054.289062 87.824219 1054.992188 88.246094 C 1055.980469 88.667969 1056.964844 88.527344 1057.949219 88.246094 C 1058.933594 87.964844 1059.777344 87.402344 1060.339844 86.277344 C 1060.621094 85.714844 1060.902344 84.308594 1060.203125 83.886719 " fill-opacity="1" fill-rule="nonzero"/><path fill="rgb(92.158508%, 62.748718%, 55.288696%)" d="M 1155.273438 147.203125 C 1126.117188 156.570312 1113.394531 227.089844 1105.777344 242.324219 C 1105.777344 242.324219 1065.640625 213.601562 1059.347656 218.714844 C 1053.054688 223.828125 1100.03125 294.003906 1119.136719 291.402344 C 1128.6875 289.664062 1171.777344 202.765625 1176.988281 182.796875 C 1180.460938 169.773438 1179.589844 139.386719 1155.273438 147.203125 Z M 1155.273438 147.203125 " fill-opacity="1" fill-rule="nonzero"/><path fill="rgb(12.548828%, 22.349548%, 43.528748%)" d="M 1083.367188 113.703125 C 1086.832031 111.417969 1089.660156 108.042969 1092.179688 104.773438 C 1095.289062 100.738281 1098.742188 96.609375 1101.246094 92.167969 C 1101.601562 91.53125 1100.824219 90.566406 1100.160156 91.082031 C 1096.980469 93.535156 1094.753906 97.066406 1092.417969 100.28125 C 1089.28125 104.589844 1085.894531 108.410156 1082.285156 112.300781 C 1081.617188 113.019531 1082.488281 114.28125 1083.367188 113.703125 Z M 1083.367188 113.703125 " fill-opacity="1" fill-rule="nonzero"/><path fill="rgb(91.758728%, 32.548523%, 35.289001%)" d="M 1060.039062 51.039062 C 1070.171875 56.84375 1062.367188 69.167969 1073.34375 74.535156 C 1077.84375 76.738281 1084.671875 75.308594 1088.273438 78.96875 C 1091.828125 82.585938 1082.601562 98.675781 1092.554688 98.675781 C 1094.769531 98.675781 1097.726562 94.34375 1101.417969 93.722656 C 1104.375 93.105469 1108.066406 93.722656 1111.757812 93.722656 C 1119.144531 94.34375 1125.792969 91.25 1131.703125 86.296875 C 1135.394531 82.585938 1142.785156 73.921875 1140.566406 68.96875 C 1139.089844 65.257812 1135.394531 65.875 1135.394531 60.925781 C 1135.394531 59.066406 1136.136719 57.210938 1136.875 55.355469 C 1140.507812 41.652344 1131.6875 35.421875 1123.152344 26.492188 C 1112.828125 15.6875 1091.542969 13.707031 1078.292969 14.488281 C 1068.417969 15.070312 1041.148438 23.609375 1039.367188 35.554688 C 1038.632812 40.5 1040.847656 44.210938 1046.746094 46.070312 C 1050.75 47.328125 1055.957031 48.703125 1060.039062 51.039062 Z M 1060.039062 51.039062 " fill-opacity="1" fill-rule="nonzero"/><path fill="rgb(91.758728%, 32.548523%, 35.289001%)" d="M 1056.101562 109.40625 C 1057.65625 109.382812 1059.214844 109.101562 1060.761719 109.367188 C 1062.09375 109.597656 1062.664062 107.558594 1061.324219 107.328125 C 1059.5625 107.023438 1057.867188 107.265625 1056.101562 107.289062 C 1054.738281 107.308594 1054.734375 109.425781 1056.101562 109.40625 Z M 1056.101562 109.40625 " fill-opacity="1" fill-rule="nonzero"/><path fill="rgb(91.758728%, 32.548523%, 35.289001%)" d="M 677.347656 398.269531 C 689.648438 438.175781 714.527344 544.878906 714.527344 544.878906 C 714.527344 544.878906 723.699219 546.644531 724.757812 543.46875 C 725.53125 540.367188 710.707031 439.378906 702.710938 398.269531 Z M 677.347656 398.269531 " fill-opacity="1" fill-rule="nonzero"/><path fill="rgb(91.758728%, 32.548523%, 35.289001%)" d="M 564.738281 418.71875 C 564.738281 418.71875 536.703125 584.921875 537.761719 589.152344 C 538.820312 592.328125 547.992188 590.566406 547.992188 590.566406 C 547.992188 590.566406 590.816406 424.035156 591.875 422.976562 " fill-opacity="1" fill-rule="nonzero"/><path fill="rgb(91.758728%, 32.548523%, 35.289001%)" d="M 664.371094 418.71875 C 664.371094 418.71875 692.40625 584.921875 691.347656 589.152344 C 690.289062 592.328125 681.117188 590.566406 681.117188 590.566406 C 681.117188 590.566406 638.292969 424.035156 637.234375 422.976562 " fill-opacity="1" fill-rule="nonzero"/><path fill="rgb(91.758728%, 32.548523%, 35.289001%)" d="M 567.75 372.5625 C 560.34375 374.675781 547.640625 381.027344 543.40625 388.4375 C 541.289062 391.609375 537.054688 401.132812 537.054688 405.367188 C 537.054688 411.714844 544.464844 418.066406 548.699219 422.300781 C 564.574219 440.289062 596.332031 441.347656 618.558594 444.523438 C 648.195312 448.757812 736.050781 455.105469 724.40625 404.308594 C 714.882812 360.921875 652.429688 370.445312 619.617188 370.445312 Z M 567.75 372.5625 " fill-opacity="1" fill-rule="nonzero"/><path fill="rgb(92.158508%, 52.549744%, 49.409485%)" d="M 764.222656 504.230469 C 760.535156 512.828125 762.992188 525.113281 758.078125 533.710938 C 753.164062 539.851562 739.589844 556.007812 748.1875 562.148438 C 756.789062 568.289062 764.554688 562.261719 775.214844 568.367188 C 782.492188 572.539062 839.667969 583.289062 844.082031 576.703125 C 848.496094 570.113281 814.59375 558.277344 809.679688 555.820312 C 797.394531 548.449219 787.566406 544.761719 790.019531 530.023438 C 791.25 520.195312 796.164062 509.140625 796.164062 499.316406 " fill-opacity="1" fill-rule="nonzero"/><path fill="rgb(98.039246%, 97.648621%, 96.859741%)" d="M 583.199219 357.421875 C 589.253906 364.351562 592.636719 372.664062 599.976562 378.207031 C 617.730469 393.449219 637.234375 394.835938 658.230469 397.605469 C 676.550781 401.761719 693.285156 403.148438 711.203125 401.761719 C 729.117188 400.375 766.472656 401.761719 766.472656 401.761719 C 766.472656 401.761719 756.046875 446.101562 752.707031 457.1875 C 748.695312 477.96875 746.070312 498.753906 741.957031 518.152344 C 754.738281 522.3125 772.550781 519.539062 785.226562 522.3125 C 790.875 523.695312 799.289062 525.082031 804.734375 523.695312 C 811.457031 520.925781 812.027344 509.839844 815.675781 502.914062 C 823.230469 473.816406 832.277344 446.101562 839.933594 418.390625 C 845.867188 395.542969 857.945312 365.78125 835.15625 345.550781 C 819.554688 331.699219 794.679688 331.234375 776.316406 330.425781 C 755.261719 329.5 678.769531 332.101562 658.109375 305.507812 " fill-opacity="1" fill-rule="nonzero"/><path fill="rgb(12.548828%, 22.349548%, 43.528748%)" d="M 750.441406 544.308594 C 754.597656 544.652344 765.339844 552.792969 774.175781 555.914062 C 778.335938 556.953125 783.011719 556.953125 787.167969 557.46875 C 790.808594 557.992188 795.484375 558.511719 799.121094 557.992188 C 798.605469 555.394531 794.964844 553.832031 794.964844 551.238281 C 794.445312 547.601562 798.082031 547.078125 800.679688 548.117188 C 805.878906 550.195312 811.078125 553.316406 816.273438 555.914062 C 825.628906 560.070312 838.621094 561.628906 846.417969 569.941406 C 848.496094 572.019531 848.496094 573.578125 848.496094 576.695312 C 848.496094 580.332031 848.496094 580.851562 844.339844 581.371094 C 838.621094 581.890625 832.90625 581.890625 827.1875 581.890625 C 815.753906 581.890625 805.878906 580.332031 794.964844 577.214844 C 789.765625 575.65625 785.089844 573.058594 780.410156 572.019531 C 775.734375 570.980469 771.054688 570.980469 766.378906 570.980469 C 761.183594 570.980469 741.433594 571.5 741.433594 563.1875 C 741.433594 563.1875 746.285156 543.960938 750.441406 544.308594 Z M 750.441406 544.308594 " fill-opacity="1" fill-rule="nonzero"/><path fill="rgb(92.158508%, 52.549744%, 49.409485%)" d="M 724.871094 511.4375 C 721.183594 520.035156 723.640625 532.320312 718.726562 540.917969 C 713.8125 547.0625 700.238281 563.214844 708.835938 569.355469 C 717.4375 575.5 725.203125 569.46875 735.863281 575.578125 C 743.140625 579.75 800.316406 590.5 804.730469 583.910156 C 809.144531 577.324219 775.242188 565.484375 770.328125 563.027344 C 758.042969 555.660156 748.210938 551.972656 750.667969 537.234375 C 751.898438 527.40625 756.8125 516.351562 756.8125 506.527344 " fill-opacity="1" fill-rule="nonzero"/><path fill="rgb(73.728943%, 82.348633%, 77.648926%)" d="M 556.144531 364.632812 C 561.691406 371.5625 564.460938 379.875 571.390625 385.417969 C 588.023438 400.660156 607.425781 402.046875 628.214844 404.816406 C 646.230469 408.972656 662.863281 410.359375 680.882812 408.972656 C 698.898438 407.589844 736.152344 408.972656 736.152344 408.972656 C 736.152344 408.972656 722.460938 453.3125 718.300781 464.398438 C 712.757812 485.179688 708.601562 505.964844 703.054688 525.363281 C 715.53125 529.523438 733.546875 526.75 746.019531 529.523438 C 751.566406 530.90625 759.878906 532.292969 765.425781 530.90625 C 772.355469 528.136719 773.742188 517.050781 777.898438 510.125 C 787.597656 481.027344 798.6875 453.3125 808.390625 425.601562 C 816.007812 402.75 830.28125 372.992188 808.980469 352.761719 C 794.398438 338.910156 769.558594 338.445312 751.257812 337.636719 C 730.269531 336.710938 704.886719 332.976562 685.105469 325.835938 " fill-opacity="1" fill-rule="nonzero"/><path fill="rgb(12.548828%, 22.349548%, 43.528748%)" d="M 711.089844 551.519531 C 715.246094 551.863281 725.988281 560.003906 734.824219 563.121094 C 738.980469 564.164062 743.660156 564.164062 747.816406 564.679688 C 751.453125 565.199219 756.132812 565.71875 759.769531 565.199219 C 759.25 562.601562 755.613281 561.042969 755.613281 558.445312 C 755.09375 554.808594 758.730469 554.289062 761.328125 555.328125 C 766.527344 557.40625 771.722656 560.523438 776.921875 563.121094 C 786.277344 567.277344 799.269531 568.835938 807.066406 577.152344 C 809.144531 579.230469 809.144531 580.789062 809.144531 583.90625 C 809.144531 587.542969 809.144531 588.0625 804.988281 588.582031 C 799.269531 589.101562 793.550781 589.101562 787.835938 589.101562 C 776.402344 589.101562 766.527344 587.542969 755.613281 584.425781 C 750.414062 582.867188 745.738281 580.269531 741.058594 579.230469 C 736.382812 578.191406 731.703125 578.191406 727.027344 578.191406 C 721.828125 578.191406 702.082031 578.707031 702.082031 570.394531 C 702.082031 570.394531 706.929688 551.171875 711.089844 551.519531 Z M 711.089844 551.519531 " fill-opacity="1" fill-rule="nonzero"/><path fill="rgb(32.159424%, 78.819275%, 79.60968%)" d="M 689.863281 112.75 C 687.050781 119.78125 675.097656 122.59375 668.066406 125.40625 C 655.410156 131.03125 638.8125 134.214844 625.875 143.683594 C 572.875 182.488281 535.046875 345.679688 554.667969 373.890625 C 574.285156 402.105469 719.1875 355.117188 713.070312 321.554688 C 706.949219 287.992188 742.664062 222.773438 752.507812 196.058594 C 756.726562 184.8125 762.292969 168.992188 758.070312 154.933594 C 753.851562 142.277344 745.414062 136.65625 732.757812 133.839844 C 724.320312 131.03125 714.476562 126.8125 706.039062 125.40625 " fill-opacity="1" fill-rule="nonzero"/><path fill="rgb(12.548828%, 22.349548%, 43.528748%)" d="M 798.300781 251.851562 C 781 253.546875 764.09375 256.847656 747.183594 261.339844 C 732.796875 265.164062 716.105469 265.214844 703.019531 273.734375 C 673.042969 293.253906 697.839844 310.558594 719.621094 319.011719 C 747.144531 330.097656 779.957031 328.867188 808.535156 328.867188 C 860.402344 328.867188 911.210938 328.867188 963.078125 328.867188 C 977.292969 328.867188 1096.242188 319.039062 1087.980469 286.976562 C 1084.804688 274.65625 1073.164062 263.566406 1063.636719 259.867188 C 1025.964844 245.25 985.316406 249.742188 946.242188 249.757812 C 911.613281 249.769531 876.980469 249.46875 842.355469 250.039062 C 827.683594 250.28125 812.933594 250.417969 798.300781 251.851562 Z M 798.300781 251.851562 " fill-opacity="1" fill-rule="nonzero"/><path fill="rgb(92.158508%, 52.549744%, 49.409485%)" d="M 750.191406 154.746094 C 751.199219 168.664062 760.273438 187.074219 765.3125 200.59375 C 766.957031 204.886719 778.515625 235.820312 781.15625 236.21875 C 783.425781 236.5625 786.03125 236.148438 787.886719 237.648438 C 789.433594 238.898438 789.695312 240.984375 791.121094 242.152344 C 792.3125 243.121094 792.992188 243.132812 792.820312 244.863281 C 792.679688 246.273438 792.574219 247.300781 793.4375 248.460938 C 794.378906 249.730469 793.925781 251.039062 793.597656 252.453125 C 793.253906 253.910156 792.847656 254.921875 793.484375 256.4375 C 794.058594 257.800781 794.140625 258.765625 793.574219 260.1875 C 793.480469 260.421875 793.378906 260.652344 793.269531 260.878906 C 792.070312 263.378906 790.007812 265.542969 788.109375 267.53125 C 786.25 269.472656 784.035156 271.050781 781.722656 272.410156 C 776.886719 275.246094 771.574219 277.164062 766.320312 279.066406 C 750.191406 284.910156 726 287.734375 707.855469 282.667969 C 706.847656 274.035156 747.167969 184.941406 749.183594 178.921875 Z M 750.191406 154.746094 " fill-opacity="1" fill-rule="nonzero"/><path fill="rgb(12.548828%, 22.349548%, 43.528748%)" d="M 755.488281 49.4375 C 757.605469 38.855469 756.191406 28.273438 747.019531 21.921875 C 740.042969 17.273438 733.066406 17.417969 726.484375 19.980469 C 722.277344 15.917969 716.152344 14.773438 713.070312 14.515625 C 706.9375 14 700.050781 16.84375 696.210938 22.980469 C 687.214844 22.980469 678.21875 24.039062 672.394531 30.917969 C 666.574219 37.796875 663.929688 47.851562 670.277344 55.257812 C 664.457031 56.84375 661.28125 65.839844 660.753906 71.660156 C 660.222656 80.125 663.929688 81.714844 669.75 86.476562 C 669.75 90.179688 669.222656 94.414062 670.277344 97.585938 C 672.394531 102.878906 678.746094 107.109375 684.039062 108.167969 C 688.273438 109.226562 755.488281 75.539062 755.488281 75.539062 C 757.605469 81.890625 766.777344 73.421875 767.484375 69.894531 C 769.601562 61.429688 761.839844 53.671875 755.488281 49.4375 Z M 755.488281 49.4375 " fill-opacity="1" fill-rule="nonzero"/><path fill="rgb(92.158508%, 52.549744%, 49.409485%)" d="M 686.179688 86.039062 C 687.585938 94.472656 690.398438 101.503906 687.585938 109.941406 C 686.179688 125.40625 667.898438 135.246094 684.773438 147.902344 C 688.996094 150.714844 697.433594 154.933594 703.058594 154.933594 C 712.902344 154.933594 715.714844 149.308594 718.527344 140.871094 C 722.746094 133.84375 725.558594 122.59375 726.964844 114.160156 Z M 686.179688 86.039062 " fill-opacity="1" fill-rule="nonzero"/><path fill="rgb(92.158508%, 52.549744%, 49.409485%)" d="M 724.371094 40.578125 C 702.949219 40.894531 688.519531 49.820312 686.238281 79.15625 C 684.867188 100.304688 697.476562 118.671875 705.46875 126.75 C 713.460938 134.832031 734.722656 141.503906 742.992188 138.71875 C 757.371094 133.871094 764.792969 112.160156 764.792969 92.789062 C 764.792969 62.273438 756.75 40.09375 724.371094 40.578125 Z M 724.371094 40.578125 " fill-opacity="1" fill-rule="nonzero"/><path fill="rgb(12.548828%, 22.349548%, 43.528748%)" d="M 742.179688 92.667969 C 744.164062 96.5625 746.378906 100.308594 748.703125 104.007812 C 749.261719 104.898438 752.636719 108.808594 750.140625 109.753906 C 747.832031 110.628906 745.007812 110.515625 742.710938 109.753906 C 741.414062 109.324219 740.859375 111.367188 742.148438 111.792969 C 744.265625 112.496094 753.988281 113.378906 753.566406 109.046875 C 753.34375 106.765625 751.71875 104.8125 750.53125 102.941406 C 748.191406 99.253906 745.992188 95.488281 744.007812 91.597656 C 743.390625 90.382812 741.5625 91.453125 742.179688 92.667969 Z M 742.179688 92.667969 " fill-opacity="1" fill-rule="nonzero"/><path fill="rgb(12.548828%, 22.349548%, 43.528748%)" d="M 718.839844 90.15625 C 723.773438 91.816406 728.515625 93.425781 733.773438 93.523438 C 735.136719 93.546875 735.136719 91.433594 733.773438 91.40625 C 728.703125 91.3125 724.148438 89.714844 719.402344 88.117188 C 718.105469 87.679688 717.554688 89.722656 718.839844 90.15625 Z M 718.839844 90.15625 " fill-opacity="1" fill-rule="nonzero"/><path fill="rgb(12.548828%, 22.349548%, 43.528748%)" d="M 750.804688 93.484375 C 754.886719 94.464844 759.304688 93.722656 763.113281 92.046875 C 764.359375 91.5 763.28125 89.675781 762.046875 90.21875 C 758.773438 91.65625 754.851562 92.28125 751.367188 91.445312 C 750.039062 91.125 749.476562 93.167969 750.804688 93.484375 Z M 750.804688 93.484375 " fill-opacity="1" fill-rule="nonzero"/><path fill="rgb(12.548828%, 22.349548%, 43.528748%)" d="M 716.4375 82.304688 C 716.792969 82.941406 722.285156 82.378906 727.417969 83.0625 C 731.816406 83.648438 734.457031 85.992188 736.523438 85.203125 C 738.589844 84.410156 737.402344 77.6875 735.820312 76.5 C 734.238281 75.316406 724.746094 75.972656 721.183594 76.5 C 717.625 77.03125 715.777344 81.117188 716.4375 82.304688 Z M 716.4375 82.304688 " fill-opacity="1" fill-rule="nonzero"/><path fill="rgb(12.548828%, 22.349548%, 43.528748%)" d="M 764.476562 82.304688 C 764.195312 82.941406 759.859375 82.378906 755.8125 83.0625 C 752.339844 83.648438 750.257812 85.992188 748.625 85.203125 C 746.996094 84.410156 747.933594 77.6875 749.183594 76.5 C 750.429688 75.316406 757.921875 75.972656 760.730469 76.5 C 763.539062 77.03125 764.996094 81.117188 764.476562 82.304688 Z M 764.476562 82.304688 " fill-opacity="1" fill-rule="nonzero"/><path fill="rgb(91.758728%, 32.548523%, 35.289001%)" d="M 728.574219 117.347656 C 734.042969 120.859375 741.8125 124.277344 748.289062 121.007812 C 749.507812 120.390625 748.4375 118.566406 747.222656 119.179688 C 741.566406 122.035156 734.304688 118.511719 729.644531 115.519531 C 728.492188 114.777344 727.429688 116.613281 728.574219 117.347656 Z M 728.574219 117.347656 " fill-opacity="1" fill-rule="nonzero"/><path fill="rgb(12.548828%, 22.349548%, 43.528748%)" d="M 724.117188 91.132812 C 724.117188 94.792969 724.78125 96.457031 728.777344 97.457031 C 732.4375 98.457031 733.4375 96.125 733.105469 92.796875 " fill-opacity="1" fill-rule="nonzero"/><path fill="rgb(12.548828%, 22.349548%, 43.528748%)" d="M 753.625 92.886719 C 754.433594 96.457031 754.800781 97.257812 758.917969 97.355469 C 762.710938 97.523438 763.171875 95.027344 762.113281 91.855469 " fill-opacity="1" fill-rule="nonzero"/><path fill="rgb(12.548828%, 22.349548%, 43.528748%)" d="M 692.566406 109.710938 C 696.988281 119.890625 702.179688 128.949219 712.769531 133.652344 C 713.386719 133.925781 713.945312 133.25 713.492188 132.71875 C 710.507812 129.210938 706.75 126.664062 703.40625 123.523438 C 699.070312 119.449219 697.230469 113.722656 694.195312 108.761719 C 693.542969 107.699219 692.09375 108.625 692.566406 109.710938 Z M 692.566406 109.710938 " fill-opacity="1" fill-rule="nonzero"/><path fill="rgb(12.548828%, 22.349548%, 43.528748%)" d="M 666.148438 136.511719 C 660.695312 150.125 684.3125 162.714844 694.6875 165.621094 C 708 169.34375 721.851562 163.484375 723.808594 148.605469 C 723.921875 147.738281 722.484375 147.359375 722.140625 148.15625 C 720.847656 151.15625 719.242188 153.929688 717.566406 156.734375 C 713.390625 163.730469 705.621094 164.160156 698.222656 163.882812 C 688.453125 163.515625 662.742188 149.304688 667.167969 136.792969 C 667.402344 136.140625 666.398438 135.894531 666.148438 136.511719 Z M 666.148438 136.511719 " fill-opacity="1" fill-rule="nonzero"/><path fill="rgb(92.158508%, 52.549744%, 49.409485%)" d="M 694.816406 87.796875 C 693.378906 83.402344 685.492188 76.152344 678.832031 80.148438 C 668.179688 89.46875 687.15625 102.785156 693.816406 102.785156 " fill-opacity="1" fill-rule="nonzero"/><path fill="rgb(12.548828%, 22.349548%, 43.528748%)" d="M 685.296875 89.902344 C 685.269531 89.003906 684.953125 88.007812 686.183594 87.9375 C 687.230469 87.875 688.402344 88.3125 689.148438 89.035156 C 690.484375 90.335938 690.546875 92.746094 690.5625 94.472656 C 690.574219 95.839844 692.691406 95.839844 692.679688 94.472656 C 692.65625 91.519531 692.136719 87.992188 689.214844 86.519531 C 687.992188 85.90625 685.667969 85.339844 684.40625 86.179688 C 683.015625 87.105469 683.132812 88.394531 683.179688 89.902344 C 683.222656 91.265625 685.339844 91.269531 685.296875 89.902344 Z M 685.296875 89.902344 " fill-opacity="1" fill-rule="nonzero"/><path fill="rgb(12.548828%, 22.349548%, 43.528748%)" d="M 1073.664062 529.320312 C 1071.179688 538.683594 1052.734375 560.433594 1029.066406 561.699219 C 1027.195312 561.796875 1022.109375 560.179688 1022.109375 560.179688 C 1022.109375 560.179688 1004.75 575.773438 1012.652344 577.488281 C 1022.816406 579.695312 1040.5625 569.394531 1044.710938 565.628906 C 1048.859375 561.859375 1063.566406 551.449219 1064.964844 551.316406 C 1067.871094 551.039062 1067.871094 554.628906 1068.640625 556.007812 C 1069.40625 557.382812 1081.664062 552.855469 1080.84375 550.871094 C 1080.027344 548.886719 1081.058594 539.253906 1078.800781 534.34375 C 1076.546875 529.429688 1073.664062 529.320312 1073.664062 529.320312 Z M 1073.664062 529.320312 " fill-opacity="1" fill-rule="nonzero"/><path fill="rgb(97.648621%, 52.159119%, 61.959839%)" d="M 995.390625 380.277344 C 996.769531 380.277344 996.769531 378.136719 995.390625 378.136719 C 994.007812 378.136719 994.007812 380.277344 995.390625 380.277344 Z M 995.390625 380.277344 " fill-opacity="1" fill-rule="nonzero"/><path fill="rgb(12.548828%, 22.349548%, 43.528748%)" d="M 885.09375 302.910156 C 878.203125 309.410156 877.910156 318.410156 877.53125 327.363281 C 877.078125 337.980469 876.804688 348.570312 876.703125 359.195312 C 876.515625 379.347656 876.328125 399.5 876.140625 419.652344 C 875.742188 461.960938 877.304688 504.828125 874.601562 547.046875 C 873.429688 565.324219 904.125 565.324219 902.953125 547.046875 C 900.328125 506.054688 901.832031 464.4375 901.449219 423.363281 C 901.261719 403.269531 901.074219 383.171875 900.886719 363.078125 C 900.785156 352.515625 900.644531 341.984375 900.195312 331.429688 C 899.765625 321.339844 900.359375 310.359375 892.460938 302.910156 C 890.351562 300.917969 887.203125 300.917969 885.09375 302.910156 Z M 885.09375 302.910156 " fill-opacity="1" fill-rule="nonzero"/><path fill="rgb(92.158508%, 52.549744%, 49.409485%)" d="M 619.410156 174.921875 C 619.210938 175.089844 619.007812 175.265625 618.808594 175.449219 C 601.894531 190.691406 617.90625 217.449219 627.449219 231.757812 C 640.390625 251.664062 682.050781 296.917969 697.601562 302.8125 C 713.148438 308.710938 795.707031 272.699219 784.066406 264.246094 C 772.425781 255.796875 726.476562 262.609375 726.476562 262.609375 C 726.476562 262.609375 702.605469 232.996094 693.84375 221.414062 C 685.578125 210.492188 675.316406 201.21875 665.28125 191.957031 C 653.757812 181.324219 636.957031 159.933594 619.410156 174.921875 Z M 619.410156 174.921875 " fill-opacity="1" fill-rule="nonzero"/><path fill="rgb(12.548828%, 22.349548%, 43.528748%)" d="M 689.859375 56.316406 C 689.332031 58.433594 687.742188 59.492188 686.683594 61.605469 C 685.097656 64.253906 685.097656 67.425781 684.566406 70.074219 C 684.039062 73.777344 684.039062 76.949219 687.214844 79.597656 C 689.859375 82.242188 693.035156 81.710938 696.742188 81.710938 C 696.742188 89.121094 703.621094 91.765625 708.914062 86.472656 C 714.203125 80.65625 709.972656 73.777344 708.382812 67.425781 C 711.558594 67.425781 713.675781 67.953125 716.851562 66.367188 C 720.027344 65.308594 723.203125 62.664062 725.320312 59.488281 C 726.378906 58.429688 727.964844 52.082031 729.023438 51.550781 C 731.667969 51.023438 732.726562 56.316406 734.316406 57.902344 C 737.492188 60.546875 745.957031 61.605469 750.195312 59.488281 C 754.429688 57.371094 752.3125 58.429688 756.015625 61.605469 C 758.132812 63.722656 761.308594 63.722656 764.484375 62.664062 C 770.832031 60.019531 770.832031 52.609375 768.1875 47.316406 C 766.070312 44.144531 764.484375 42.554688 761.308594 40.96875 C 759.191406 39.382812 756.015625 39.910156 753.898438 38.851562 C 751.78125 37.792969 751.253906 35.148438 749.664062 32.503906 C 748.078125 30.386719 745.429688 27.210938 742.253906 25.625 C 737.492188 22.980469 729.554688 22.980469 725.320312 26.683594 C 723.203125 28.800781 723.730469 30.917969 722.144531 33.03125 C 714.203125 25.625 697.269531 27.742188 690.386719 35.148438 C 684.039062 42.027344 676.097656 62.132812 688.800781 67.953125 " fill-opacity="1" fill-rule="nonzero"/><path fill="rgb(32.159424%, 78.819275%, 79.60968%)" d="M 690.917969 208.175781 C 683.511719 199.710938 672.925781 192.300781 665.515625 184.894531 C 657.046875 176.425781 647.519531 165.84375 634.816406 164.785156 C 622.117188 163.726562 612.589844 174.308594 609.414062 184.894531 C 602.003906 210.292969 614.707031 233.574219 626.351562 254.738281 C 629.527344 261.085938 629.527344 265.320312 635.875 266.378906 C 640.109375 267.433594 646.460938 265.320312 650.695312 264.261719 C 660.222656 262.144531 671.867188 260.027344 679.273438 255.796875 C 688.800781 250.503906 707.835938 222.605469 707.835938 222.605469 C 707.835938 222.605469 696.210938 213.464844 690.917969 208.175781 Z M 690.917969 208.175781 " fill-opacity="1" fill-rule="nonzero"/><path fill="rgb(92.158508%, 62.748718%, 55.288696%)" d="M 1033.28125 221.480469 C 1028.59375 225.609375 1025.699219 233.472656 1025.800781 239.019531 C 1025.078125 251.1875 1036.890625 257.988281 1045.882812 263.90625 C 1054.875 269.824219 1064.789062 275.257812 1073.78125 281.175781 C 1083.214844 285.679688 1091.804688 295.347656 1102.441406 288.609375 C 1112.148438 282.359375 1112.910156 272.527344 1108.511719 261.855469 C 1106.574219 258.148438 1104.636719 254.441406 1101.773438 251.222656 C 1097.457031 245.21875 1097.457031 245.21875 1090.445312 245.347656 C 1077.832031 246.039062 1072.992188 236.773438 1063.515625 229.929688 C 1056.832031 225.105469 1048.933594 218.777344 1040.007812 218.703125 C 1037.511719 218.683594 1035.238281 219.753906 1033.28125 221.480469 Z M 1033.28125 221.480469 " fill-opacity="1" fill-rule="nonzero"/><path fill="rgb(32.159424%, 78.819275%, 79.60968%)" d="M 752.3125 146.796875 C 760.78125 164.785156 760.78125 191.242188 774.539062 206.058594 L 774.539062 207.117188 C 769.25 215.582031 757.605469 226.164062 747.019531 229.339844 C 741.726562 231.457031 726.90625 235.6875 722.675781 229.339844 " fill-opacity="1" fill-rule="nonzero"/><path fill="rgb(98.039246%, 97.648621%, 96.859741%)" d="M 1005.5 301.550781 C 1006.066406 302.117188 1005.875 302.582031 1005.070312 302.582031 L 772.480469 302.582031 C 771.679688 302.582031 771.488281 302.117188 772.054688 301.550781 L 814.460938 259.183594 C 815.027344 258.617188 816.148438 258.15625 816.949219 258.15625 L 960.601562 258.15625 C 961.402344 258.15625 962.523438 258.617188 963.089844 259.183594 Z M 1005.5 301.550781 " fill-opacity="1" fill-rule="nonzero"/><path fill="rgb(32.159424%, 78.819275%, 79.60968%)" d="M 965.730469 261.820312 L 946.527344 261.820312 L 943.773438 258.15625 L 958.058594 258.15625 L 963.214844 259.304688 Z M 965.730469 261.820312 " fill-opacity="1" fill-rule="nonzero"/><path fill="rgb(32.159424%, 78.819275%, 79.60968%)" d="M 927.246094 261.820312 L 908.039062 261.820312 L 907.121094 258.15625 L 925.410156 258.15625 Z M 927.246094 261.820312 " fill-opacity="1" fill-rule="nonzero"/><path fill="rgb(32.159424%, 78.819275%, 79.60968%)" d="M 888.757812 261.820312 L 869.550781 261.820312 L 870.46875 258.15625 L 888.761719 258.15625 Z M 888.757812 261.820312 " fill-opacity="1" fill-rule="nonzero"/><path fill="rgb(32.159424%, 78.819275%, 79.60968%)" d="M 850.273438 261.820312 L 831.066406 261.820312 L 833.820312 258.15625 L 852.109375 258.15625 Z M 850.273438 261.820312 " fill-opacity="1" fill-rule="nonzero"/><path fill="rgb(32.159424%, 78.819275%, 79.60968%)" d="M 949.492188 265.824219 L 929.289062 265.824219 L 927.257812 261.777344 L 946.453125 261.777344 Z M 949.492188 265.824219 " fill-opacity="1" fill-rule="nonzero"/><path fill="rgb(32.159424%, 78.819275%, 79.60968%)" d="M 909.003906 265.824219 L 888.796875 265.824219 L 888.796875 261.777344 L 907.988281 261.777344 Z M 909.003906 265.824219 " fill-opacity="1" fill-rule="nonzero"/><path fill="rgb(32.159424%, 78.819275%, 79.60968%)" d="M 868.511719 265.824219 L 848.304688 265.824219 L 850.332031 261.777344 L 869.527344 261.777344 Z M 868.511719 265.824219 " fill-opacity="1" fill-rule="nonzero"/><path fill="rgb(32.159424%, 78.819275%, 79.60968%)" d="M 828.023438 265.824219 L 807.816406 265.824219 L 811.867188 261.777344 L 831.0625 261.777344 Z M 828.023438 265.824219 " fill-opacity="1" fill-rule="nonzero"/><path fill="rgb(32.159424%, 78.819275%, 79.60968%)" d="M 974.1875 270.265625 L 952.871094 270.265625 L 949.496094 265.773438 L 969.6875 265.773438 Z M 974.1875 270.265625 " fill-opacity="1" fill-rule="nonzero"/><path fill="rgb(32.159424%, 78.819275%, 79.60968%)" d="M 931.472656 270.265625 L 910.15625 270.265625 L 909.03125 265.773438 L 929.222656 265.773438 Z M 931.472656 270.265625 " fill-opacity="1" fill-rule="nonzero"/><path fill="rgb(32.159424%, 78.819275%, 79.60968%)" d="M 888.757812 270.265625 L 867.441406 270.265625 L 868.5625 265.773438 L 888.757812 265.773438 Z M 888.757812 270.265625 " fill-opacity="1" fill-rule="nonzero"/><path fill="rgb(32.159424%, 78.819275%, 79.60968%)" d="M 846.042969 270.265625 L 824.726562 270.265625 L 828.097656 265.773438 L 848.292969 265.773438 Z M 846.042969 270.265625 " fill-opacity="1" fill-rule="nonzero"/><path fill="rgb(32.159424%, 78.819275%, 79.60968%)" d="M 956.550781 275.226562 L 933.996094 275.226562 L 931.484375 270.214844 L 952.789062 270.214844 Z M 956.550781 275.226562 " fill-opacity="1" fill-rule="nonzero"/><path fill="rgb(32.159424%, 78.819275%, 79.60968%)" d="M 911.355469 275.226562 L 888.800781 275.226562 L 888.796875 270.214844 L 910.101562 270.214844 Z M 911.355469 275.226562 " fill-opacity="1" fill-rule="nonzero"/><path fill="rgb(32.159424%, 78.819275%, 79.60968%)" d="M 866.15625 275.226562 L 843.601562 275.226562 L 846.109375 270.214844 L 867.414062 270.214844 Z M 866.15625 275.226562 " fill-opacity="1" fill-rule="nonzero"/><path fill="rgb(32.159424%, 78.819275%, 79.60968%)" d="M 820.957031 275.226562 L 798.402344 275.226562 L 803.421875 270.214844 L 824.726562 270.214844 Z M 820.957031 275.226562 " fill-opacity="1" fill-rule="nonzero"/><path fill="rgb(32.159424%, 78.819275%, 79.60968%)" d="M 984.726562 280.800781 L 960.78125 280.800781 L 956.550781 275.167969 L 979.089844 275.167969 Z M 984.726562 280.800781 " fill-opacity="1" fill-rule="nonzero"/><path fill="rgb(32.159424%, 78.819275%, 79.60968%)" d="M 936.742188 280.800781 L 912.792969 280.800781 L 911.382812 275.167969 L 933.921875 275.167969 Z M 936.742188 280.800781 " fill-opacity="1" fill-rule="nonzero"/><path fill="rgb(32.159424%, 78.819275%, 79.60968%)" d="M 888.753906 280.800781 L 864.804688 280.800781 L 866.214844 275.167969 L 888.753906 275.167969 Z M 888.753906 280.800781 " fill-opacity="1" fill-rule="nonzero"/><path fill="rgb(32.159424%, 78.819275%, 79.60968%)" d="M 840.765625 280.800781 L 816.820312 280.800781 L 821.046875 275.167969 L 843.589844 275.167969 Z M 840.765625 280.800781 " fill-opacity="1" fill-rule="nonzero"/><path fill="rgb(32.159424%, 78.819275%, 79.60968%)" d="M 965.46875 287.105469 L 939.945312 287.105469 L 936.753906 280.730469 L 960.683594 280.730469 Z M 965.46875 287.105469 " fill-opacity="1" fill-rule="nonzero"/><path fill="rgb(32.159424%, 78.819275%, 79.60968%)" d="M 914.324219 287.105469 L 888.800781 287.105469 L 888.800781 280.730469 L 912.730469 280.730469 Z M 914.324219 287.105469 " fill-opacity="1" fill-rule="nonzero"/><path fill="rgb(32.159424%, 78.819275%, 79.60968%)" d="M 863.179688 287.105469 L 837.660156 287.105469 L 840.847656 280.730469 L 864.777344 280.730469 Z M 863.179688 287.105469 " fill-opacity="1" fill-rule="nonzero"/><path fill="rgb(32.159424%, 78.819275%, 79.60968%)" d="M 812.039062 287.105469 L 786.515625 287.105469 L 792.894531 280.730469 L 816.824219 280.730469 Z M 812.039062 287.105469 " fill-opacity="1" fill-rule="nonzero"/><path fill="rgb(32.159424%, 78.819275%, 79.60968%)" d="M 998.238281 294.296875 L 970.917969 294.296875 L 965.457031 287.027344 L 990.960938 287.027344 Z M 998.238281 294.296875 " fill-opacity="1" fill-rule="nonzero"/><path fill="rgb(32.159424%, 78.819275%, 79.60968%)" d="M 943.496094 294.296875 L 916.175781 294.296875 L 914.355469 287.027344 L 939.855469 287.027344 Z M 943.496094 294.296875 " fill-opacity="1" fill-rule="nonzero"/><path fill="rgb(32.159424%, 78.819275%, 79.60968%)" d="M 888.75 294.296875 L 861.429688 294.296875 L 863.25 287.027344 L 888.753906 287.027344 Z M 888.75 294.296875 " fill-opacity="1" fill-rule="nonzero"/><path fill="rgb(32.159424%, 78.819275%, 79.60968%)" d="M 834.007812 294.296875 L 806.6875 294.296875 L 812.144531 287.027344 L 837.648438 287.027344 Z M 834.007812 294.296875 " fill-opacity="1" fill-rule="nonzero"/><path fill="rgb(32.159424%, 78.819275%, 79.60968%)" d="M 977.082031 302.582031 L 947.695312 302.582031 L 943.503906 294.207031 L 970.800781 294.207031 Z M 977.082031 302.582031 " fill-opacity="1" fill-rule="nonzero"/><path fill="rgb(32.159424%, 78.819275%, 79.60968%)" d="M 918.195312 302.582031 L 888.804688 302.582031 L 888.804688 294.207031 L 916.101562 294.207031 Z M 918.195312 302.582031 " fill-opacity="1" fill-rule="nonzero"/><path fill="rgb(32.159424%, 78.819275%, 79.60968%)" d="M 859.304688 302.582031 L 829.914062 302.582031 L 834.105469 294.207031 L 861.402344 294.207031 Z M 859.304688 302.582031 " fill-opacity="1" fill-rule="nonzero"/><path fill="rgb(32.159424%, 78.819275%, 79.60968%)" d="M 800.414062 302.582031 L 778.375 302.582031 L 775.214844 298.394531 L 779.40625 294.207031 L 806.703125 294.207031 Z M 800.414062 302.582031 " fill-opacity="1" fill-rule="nonzero"/><path fill="rgb(32.159424%, 78.819275%, 79.60968%)" d="M 799.058594 302.039062 C 799.804688 302.339844 799.757812 302.582031 798.957031 302.582031 L 772.480469 302.582031 C 771.679688 302.582031 771.488281 302.117188 772.054688 301.550781 L 778.371094 295.238281 C 778.941406 294.671875 780.011719 294.453125 780.757812 294.746094 Z M 799.058594 302.039062 " fill-opacity="1" fill-rule="nonzero"/><path fill="rgb(32.159424%, 78.819275%, 79.60968%)" d="M 964.699219 260.789062 C 965.265625 261.355469 965.082031 261.710938 964.292969 261.582031 L 945.210938 258.394531 C 944.417969 258.261719 944.429688 258.152344 945.230469 258.152344 L 960.605469 258.152344 C 961.40625 258.152344 962.523438 258.617188 963.09375 259.183594 Z M 964.699219 260.789062 " fill-opacity="1" fill-rule="nonzero"/><path fill="rgb(12.548828%, 22.349548%, 43.528748%)" d="M 671.515625 185.597656 C 677.195312 191.355469 681.484375 198.371094 687.015625 204.316406 C 691.199219 208.820312 706.90625 218.929688 702.855469 226.273438 C 702.636719 226.667969 703.097656 227.222656 703.511719 226.929688 C 708.695312 223.285156 703.5625 217.730469 700.445312 214.367188 C 696.050781 209.625 690.765625 205.539062 686.230469 200.871094 C 681.277344 195.773438 677.328125 189.871094 672.21875 184.894531 C 671.757812 184.449219 671.066406 185.140625 671.515625 185.597656 Z M 671.515625 185.597656 " fill-opacity="1" fill-rule="nonzero"/><path fill="rgb(12.548828%, 22.349548%, 43.528748%)" d="M 727.746094 226.800781 C 733.191406 215.273438 737.171875 202.871094 740.90625 190.699219 C 741.109375 190.039062 740.113281 189.613281 739.785156 190.230469 C 733.804688 201.503906 730.199219 214.136719 726.71875 226.367188 C 726.546875 226.96875 727.46875 227.386719 727.746094 226.800781 Z M 727.746094 226.800781 " fill-opacity="1" fill-rule="nonzero"/><path fill="rgb(12.548828%, 22.349548%, 43.528748%)" d="M 616.746094 236.121094 C 624.066406 243.835938 631.820312 251.574219 636.492188 261.230469 C 639.144531 266.722656 646.183594 268.140625 650.789062 264.355469 C 651.230469 263.988281 650.851562 263.285156 650.34375 263.28125 C 645.273438 263.226562 641.027344 264.390625 638.027344 258.339844 C 636.738281 255.742188 635.191406 253.414062 633.367188 251.152344 C 628.613281 245.265625 623.335938 240.179688 617.609375 235.257812 C 617.015625 234.746094 616.195312 235.542969 616.746094 236.121094 Z M 616.746094 236.121094 " fill-opacity="1" fill-rule="nonzero"/><path fill="rgb(12.548828%, 22.349548%, 43.528748%)" d="M 720.421875 253.820312 C 730.835938 255.917969 741.792969 255.277344 752.234375 253.429688 C 755.375 252.871094 759.457031 252.097656 761.988281 249.898438 C 767.371094 245.226562 772.28125 235.464844 780.894531 240.875 C 781.5 241.253906 782.175781 240.515625 781.84375 239.925781 C 778.734375 234.441406 769.582031 236.632812 766.183594 240.652344 C 764.589844 242.535156 763.765625 244.976562 762.132812 246.917969 C 758.46875 251.277344 751.351562 251.445312 746.3125 251.953125 C 737.585938 252.832031 729.355469 253.660156 720.558594 252.8125 C 719.980469 252.757812 719.855469 253.707031 720.421875 253.820312 Z M 720.421875 253.820312 " fill-opacity="1" fill-rule="nonzero"/><path fill="rgb(12.548828%, 22.349548%, 43.528748%)" d="M 777.820312 243.480469 C 779.027344 243 780.273438 242.738281 781.367188 241.992188 C 782.242188 241.398438 783.496094 239.695312 782.4375 238.730469 C 782.28125 238.585938 782.058594 238.621094 781.941406 238.792969 C 781.675781 239.183594 781.6875 239.691406 781.546875 240.136719 C 781.367188 240.710938 780.78125 241.117188 780.300781 241.417969 C 779.421875 241.960938 778.410156 242.25 777.511719 242.753906 C 777.132812 242.96875 777.394531 243.648438 777.820312 243.480469 Z M 777.820312 243.480469 " fill-opacity="1" fill-rule="nonzero"/><path fill="rgb(12.548828%, 22.349548%, 43.528748%)" d="M 1051.882812 219.800781 C 1060.976562 227.222656 1066.378906 237.675781 1074.382812 246 C 1076.792969 248.503906 1079.769531 249.121094 1083.066406 249.222656 C 1089.125 249.414062 1087.457031 243.507812 1097.140625 251.042969 C 1099.988281 253.261719 1101.8125 256.445312 1104.621094 258.691406 C 1105.140625 259.105469 1106.214844 258.742188 1105.894531 257.953125 C 1103.320312 251.585938 1095.761719 243.980469 1088.210938 245.671875 C 1073.09375 249.058594 1063.613281 226.433594 1052.765625 218.660156 C 1052.09375 218.179688 1051.242188 219.28125 1051.882812 219.800781 Z M 1051.882812 219.800781 " fill-opacity="1" fill-rule="nonzero"/><path fill="rgb(12.548828%, 22.349548%, 43.528748%)" d="M 1091.855469 258.757812 C 1095.019531 259.46875 1106.625 262.355469 1107.371094 256.976562 C 1107.519531 255.90625 1105.945312 254.945312 1105.433594 256.15625 C 1103.996094 259.550781 1095.144531 257.550781 1092.324219 257.066406 C 1091.230469 256.882812 1090.742188 258.507812 1091.855469 258.757812 Z M 1091.855469 258.757812 " fill-opacity="1" fill-rule="nonzero"/><path fill="rgb(12.548828%, 22.349548%, 43.528748%)" d="M 1095.503906 270.078125 C 1100.792969 270.902344 1108.558594 271.265625 1111.878906 266.203125 C 1113.089844 264.363281 1112.992188 261.914062 1112.265625 259.933594 C 1111.578125 258.074219 1109.679688 255.386719 1107.4375 255.664062 C 1107.050781 255.714844 1106.632812 256.058594 1106.800781 256.503906 C 1107.308594 257.875 1108.617188 258.675781 1109.402344 259.902344 C 1110.527344 261.667969 1110.410156 263.894531 1109.070312 265.484375 C 1106.046875 269.0625 1099.5625 267.410156 1095.503906 267.972656 C 1094.449219 268.117188 1094.464844 269.914062 1095.503906 270.078125 Z M 1095.503906 270.078125 " fill-opacity="1" fill-rule="nonzero"/><path fill="rgb(12.548828%, 22.349548%, 43.528748%)" d="M 1096.851562 279.0625 C 1101.265625 279.222656 1107.621094 280.996094 1111.074219 277.28125 C 1113.632812 274.527344 1113.726562 268.5 1111.316406 265.675781 C 1110.683594 264.941406 1109.300781 265.71875 1109.65625 266.640625 C 1110.792969 269.578125 1112.011719 275 1108.132812 276.632812 C 1104.804688 278.03125 1100.359375 276.96875 1096.851562 276.976562 C 1095.503906 276.980469 1095.515625 279.011719 1096.851562 279.0625 Z M 1096.851562 279.0625 " fill-opacity="1" fill-rule="nonzero"/><path fill="rgb(12.548828%, 22.349548%, 43.528748%)" d="M 1095.992188 286.640625 C 1099.039062 287.253906 1103.738281 287.800781 1106.589844 286.226562 C 1109.105469 284.839844 1111.480469 281.859375 1109.941406 278.851562 C 1109.800781 278.578125 1109.300781 278.542969 1109.171875 278.851562 C 1108.632812 280.117188 1108.769531 281.476562 1108.097656 282.71875 C 1107.285156 284.222656 1105.535156 284.191406 1104.070312 284.261719 C 1101.382812 284.382812 1098.648438 283.734375 1095.992188 284.214844 C 1094.773438 284.433594 1094.800781 286.398438 1095.992188 286.640625 Z M 1095.992188 286.640625 " fill-opacity="1" fill-rule="nonzero"/><path fill="rgb(91.758728%, 32.548523%, 35.289001%)" d="M 823.90625 261.789062 C 823.820312 256.746094 822.503906 245.457031 820.203125 238.640625 C 824.011719 238.148438 824.464844 236.835938 821.542969 236.148438 C 822.535156 233.65625 823.347656 231.03125 823.449219 229.871094 C 823.570312 228.519531 821.738281 227.621094 819.398438 227.183594 C 819.808594 225.714844 819.136719 223.90625 817.375 223.589844 C 817.457031 222.894531 817.4375 221.640625 817.621094 221.4375 C 817.804688 221.234375 818.683594 221.320312 819.257812 221.0625 C 819.632812 220.894531 819.632812 220.273438 819.257812 220.109375 C 818.675781 219.847656 817.65625 220.082031 817.488281 219.933594 C 817.320312 219.785156 817.574219 218.300781 817.292969 217.46875 C 817.210938 217.226562 816.382812 217.125 816.300781 217.367188 C 816.015625 218.21875 816.214844 219.589844 816.132812 219.851562 C 816.050781 220.113281 814.609375 220.050781 814.417969 220.117188 C 814.222656 220.179688 814.101562 220.878906 814.363281 221.109375 C 814.625 221.339844 815.871094 221.121094 816.097656 221.339844 C 816.324219 221.5625 816.1875 222.898438 816.269531 223.59375 C 814.597656 223.894531 813.90625 225.539062 814.1875 226.960938 C 811.972656 227.171875 810.21875 227.796875 810.1875 228.859375 C 810.15625 229.996094 811.011719 233.210938 812.148438 236.140625 C 809.1875 236.820312 809.609375 238.136719 813.402344 238.636719 C 811.328125 245.589844 809.785156 257.207031 809.734375 261.5 C 807.074219 263.496094 806.875 266.570312 806.929688 267.789062 C 807.023438 269.6875 826.160156 269.003906 826.621094 267.789062 C 826.917969 267.003906 826.667969 263.921875 823.90625 261.789062 Z M 823.90625 261.789062 " fill-opacity="1" fill-rule="nonzero"/><path fill="rgb(89.7995%, 78.42865%, 10.978699%)" d="M 977.726562 272.9375 C 977.640625 267.894531 976.320312 256.601562 974.023438 249.785156 C 977.832031 249.292969 978.28125 247.984375 975.363281 247.296875 C 976.355469 244.804688 977.164062 242.175781 977.269531 241.015625 C 977.390625 239.664062 975.554688 238.769531 973.21875 238.332031 C 973.628906 236.863281 972.957031 235.054688 971.195312 234.738281 C 971.277344 234.042969 971.253906 232.789062 971.4375 232.585938 C 971.625 232.382812 972.5 232.46875 973.078125 232.210938 C 973.449219 232.042969 973.449219 231.421875 973.078125 231.253906 C 972.496094 230.992188 971.476562 231.226562 971.308594 231.082031 C 971.140625 230.933594 971.390625 229.445312 971.113281 228.613281 C 971.03125 228.371094 970.203125 228.273438 970.121094 228.515625 C 969.832031 229.363281 970.035156 230.738281 969.953125 230.996094 C 969.871094 231.257812 968.429688 231.199219 968.234375 231.261719 C 968.042969 231.324219 967.921875 232.023438 968.183594 232.253906 C 968.445312 232.488281 969.691406 232.265625 969.917969 232.488281 C 970.144531 232.707031 970.003906 234.042969 970.089844 234.738281 C 968.414062 235.039062 967.722656 236.683594 968.007812 238.109375 C 965.792969 238.316406 964.039062 238.941406 964.007812 240.007812 C 963.976562 241.144531 964.832031 244.359375 965.964844 247.289062 C 963.007812 247.96875 963.429688 249.28125 967.222656 249.78125 C 965.148438 256.734375 963.601562 268.351562 963.554688 272.644531 C 960.894531 274.640625 960.691406 277.71875 960.75 278.933594 C 960.839844 280.832031 979.980469 280.148438 980.441406 278.933594 C 980.738281 278.148438 980.488281 275.070312 977.726562 272.9375 Z M 977.726562 272.9375 " fill-opacity="1" fill-rule="nonzero"/><path fill="rgb(91.758728%, 32.548523%, 35.289001%)" d="M 884.5 278.703125 C 884.117188 275.851562 883.160156 271.859375 881.726562 268.753906 C 885.085938 268.160156 885.082031 266.832031 881.707031 266.238281 C 882.941406 263.449219 881.585938 259.417969 877.605469 259.417969 C 873.628906 259.417969 872.273438 263.449219 873.507812 266.238281 C 870.121094 266.835938 870.125 268.167969 873.519531 268.761719 C 872.230469 271.796875 871.214844 275.679688 870.765625 278.378906 C 867.871094 280.363281 867.65625 283.589844 867.714844 284.84375 C 867.808594 286.738281 886.945312 286.054688 887.40625 284.84375 C 887.714844 284.042969 887.441406 280.835938 884.5 278.703125 Z M 884.5 278.703125 " fill-opacity="1" fill-rule="nonzero"/><path fill="rgb(91.758728%, 32.548523%, 35.289001%)" d="M 902.652344 255.613281 C 902.378906 253.578125 901.699219 250.730469 900.675781 248.515625 C 903.074219 248.089844 903.070312 247.144531 900.660156 246.71875 C 901.542969 244.730469 900.574219 241.851562 897.738281 241.851562 C 894.898438 241.851562 893.929688 244.730469 894.8125 246.71875 C 892.394531 247.144531 892.398438 248.097656 894.820312 248.519531 C 893.898438 250.6875 893.175781 253.453125 892.855469 255.382812 C 890.792969 256.796875 890.636719 259.097656 890.679688 259.992188 C 890.742188 261.34375 904.394531 260.859375 904.726562 259.992188 C 904.949219 259.421875 904.753906 257.136719 902.652344 255.613281 Z M 902.652344 255.613281 " fill-opacity="1" fill-rule="nonzero"/><path fill="rgb(91.758728%, 32.548523%, 35.289001%)" d="M 883.015625 259.113281 C 882.742188 257.078125 882.0625 254.230469 881.039062 252.015625 C 883.4375 251.589844 883.433594 250.644531 881.023438 250.222656 C 881.90625 248.230469 880.9375 245.355469 878.101562 245.355469 C 875.261719 245.355469 874.292969 248.230469 875.175781 250.222656 C 872.757812 250.648438 872.761719 251.597656 875.183594 252.019531 C 874.261719 254.1875 873.539062 256.957031 873.21875 258.882812 C 871.15625 260.300781 871 262.597656 871.042969 263.492188 C 871.105469 264.847656 884.757812 264.359375 885.089844 263.492188 C 885.308594 262.921875 885.117188 260.636719 883.015625 259.113281 Z M 883.015625 259.113281 " fill-opacity="1" fill-rule="nonzero"/><path fill="rgb(89.7995%, 78.42865%, 10.978699%)" d="M 922.371094 255.613281 C 922.097656 253.578125 921.417969 250.730469 920.394531 248.515625 C 922.789062 248.089844 922.789062 247.144531 920.378906 246.71875 C 921.261719 244.730469 920.292969 241.851562 917.453125 241.851562 C 914.617188 241.851562 913.648438 244.730469 914.53125 246.71875 C 912.113281 247.144531 912.117188 248.097656 914.539062 248.519531 C 913.617188 250.6875 912.894531 253.453125 912.574219 255.382812 C 910.507812 256.796875 910.355469 259.097656 910.398438 259.992188 C 910.460938 261.34375 924.113281 260.859375 924.445312 259.992188 C 924.664062 259.421875 924.46875 257.136719 922.371094 255.613281 Z M 922.371094 255.613281 " fill-opacity="1" fill-rule="nonzero"/><path fill="rgb(89.7995%, 78.42865%, 10.978699%)" d="M 902.734375 259.113281 C 902.457031 257.078125 901.78125 254.230469 900.753906 252.015625 C 903.152344 251.589844 903.148438 250.644531 900.742188 250.222656 C 901.621094 248.230469 900.65625 245.355469 897.816406 245.355469 C 894.976562 245.355469 894.011719 248.230469 894.890625 250.222656 C 892.476562 250.648438 892.476562 251.597656 894.898438 252.019531 C 893.976562 254.1875 893.253906 256.957031 892.9375 258.882812 C 890.871094 260.300781 890.714844 262.597656 890.757812 263.492188 C 890.824219 264.847656 904.476562 264.359375 904.804688 263.492188 C 905.027344 262.921875 904.832031 260.636719 902.734375 259.113281 Z M 902.734375 259.113281 " fill-opacity="1" fill-rule="nonzero"/><path fill="rgb(89.7995%, 78.42865%, 10.978699%)" d="M 907.484375 277.441406 C 907.097656 274.585938 906.144531 270.597656 904.710938 267.492188 C 908.070312 266.894531 908.066406 265.570312 904.691406 264.976562 C 905.925781 262.1875 904.570312 258.15625 900.589844 258.15625 C 896.609375 258.15625 895.257812 262.1875 896.492188 264.976562 C 893.105469 265.574219 893.109375 266.90625 896.503906 267.5 C 895.214844 270.535156 894.199219 274.414062 893.75 277.117188 C 890.855469 279.101562 890.640625 282.324219 890.699219 283.582031 C 890.792969 285.476562 909.929688 284.792969 910.390625 283.582031 C 910.695312 282.78125 910.425781 279.574219 907.484375 277.441406 Z M 907.484375 277.441406 " fill-opacity="1" fill-rule="nonzero"/><path fill="rgb(89.7995%, 78.42865%, 10.978699%)" d="M 934.152344 285.890625 C 933.769531 283.039062 932.816406 279.046875 931.378906 275.945312 C 934.742188 275.347656 934.738281 274.023438 931.359375 273.425781 C 932.59375 270.640625 931.242188 266.605469 927.261719 266.605469 C 923.28125 266.605469 921.925781 270.640625 923.160156 273.425781 C 919.773438 274.023438 919.777344 275.355469 923.171875 275.949219 C 921.882812 278.984375 920.867188 282.867188 920.421875 285.566406 C 917.527344 287.550781 917.3125 290.777344 917.371094 292.03125 C 917.460938 293.929688 936.597656 293.246094 937.0625 292.03125 C 937.367188 291.230469 937.097656 288.027344 934.152344 285.890625 Z M 934.152344 285.890625 " fill-opacity="1" fill-rule="nonzero"/><path fill="rgb(91.758728%, 32.548523%, 35.289001%)" d="M 878.050781 294.984375 C 877.664062 292.128906 876.710938 288.136719 875.277344 285.035156 C 878.636719 284.4375 878.632812 283.113281 875.257812 282.519531 C 876.492188 279.730469 875.136719 275.695312 871.15625 275.695312 C 867.175781 275.695312 865.824219 279.730469 867.058594 282.519531 C 863.671875 283.113281 863.671875 284.445312 867.070312 285.042969 C 865.777344 288.074219 864.765625 291.957031 864.316406 294.660156 C 861.421875 296.644531 861.207031 299.867188 861.265625 301.121094 C 861.355469 303.019531 880.496094 302.335938 880.957031 301.121094 C 881.261719 300.324219 880.992188 297.117188 878.050781 294.984375 Z M 878.050781 294.984375 " fill-opacity="1" fill-rule="nonzero"/><path fill="rgb(91.758728%, 32.548523%, 35.289001%)" d="M 836.671875 274.277344 C 836.367188 270.519531 835.453125 264.429688 833.84375 259.910156 C 836.976562 259.398438 837.378906 258.277344 835.074219 257.605469 C 836.125 256.496094 836.539062 254.949219 836.210938 253.003906 C 835.964844 251.777344 834.007812 248.070312 832.304688 245.992188 C 833.109375 244.335938 832.320312 241.855469 829.914062 241.855469 C 827.371094 241.855469 826.632812 244.628906 827.679688 246.269531 C 825.546875 248.503906 823.511719 252.296875 823.511719 253.886719 C 823.511719 255.386719 824.144531 256.589844 825.066406 257.523438 C 822.414062 258.183594 822.722656 259.378906 826 259.914062 C 824.589844 264.46875 823.582031 270.519531 823.203125 273.964844 C 820.183594 275.941406 819.964844 279.246094 820.027344 280.519531 C 820.117188 282.417969 839.253906 281.734375 839.71875 280.519531 C 840.027344 279.707031 839.746094 276.410156 836.671875 274.277344 Z M 836.671875 274.277344 " fill-opacity="1" fill-rule="nonzero"/><path fill="rgb(89.7995%, 78.42865%, 10.978699%)" d="M 953.398438 272.488281 C 953.089844 268.734375 952.175781 262.640625 950.570312 258.121094 C 953.699219 257.605469 954.101562 256.488281 951.796875 255.816406 C 952.847656 254.707031 953.261719 253.164062 952.9375 251.21875 C 952.691406 249.988281 950.734375 246.28125 949.03125 244.203125 C 949.832031 242.546875 949.042969 240.066406 946.640625 240.066406 C 944.097656 240.066406 943.359375 242.839844 944.402344 244.480469 C 942.273438 246.714844 940.234375 250.511719 940.234375 252.101562 C 940.234375 253.597656 940.867188 254.800781 941.789062 255.734375 C 939.136719 256.394531 939.449219 257.589844 942.722656 258.125 C 941.316406 262.679688 940.304688 268.730469 939.929688 272.175781 C 936.90625 274.152344 936.6875 277.457031 936.75 278.734375 C 936.839844 280.628906 955.980469 279.945312 956.441406 278.734375 C 956.75 277.917969 956.472656 274.621094 953.398438 272.488281 Z M 953.398438 272.488281 " fill-opacity="1" fill-rule="nonzero"/><path fill="rgb(91.758728%, 32.548523%, 35.289001%)" d="M 907.484375 285.890625 C 907.097656 283.039062 906.144531 279.046875 904.710938 275.945312 C 908.070312 275.347656 908.066406 274.023438 904.691406 273.425781 C 905.925781 270.640625 904.570312 266.605469 900.589844 266.605469 C 896.609375 266.605469 895.257812 270.640625 896.492188 273.425781 C 893.105469 274.023438 893.109375 275.355469 896.503906 275.949219 C 895.214844 278.984375 894.199219 282.867188 893.75 285.566406 C 890.855469 287.550781 890.640625 290.777344 890.699219 292.03125 C 890.792969 293.929688 909.929688 293.246094 910.390625 292.03125 C 910.695312 291.230469 910.425781 288.027344 907.484375 285.890625 Z M 907.484375 285.890625 " fill-opacity="1" fill-rule="nonzero"/><path fill="rgb(89.7995%, 78.42865%, 10.978699%)" d="M 907.484375 294.984375 C 907.097656 292.128906 906.144531 288.136719 904.710938 285.035156 C 908.070312 284.4375 908.066406 283.113281 904.691406 282.519531 C 905.925781 279.730469 904.570312 275.695312 900.589844 275.695312 C 896.609375 275.695312 895.257812 279.730469 896.492188 282.519531 C 893.105469 283.113281 893.109375 284.445312 896.503906 285.042969 C 895.214844 288.074219 894.199219 291.957031 893.75 294.660156 C 890.855469 296.644531 890.640625 299.867188 890.699219 301.121094 C 890.792969 303.019531 909.929688 302.335938 910.390625 301.121094 C 910.695312 300.324219 910.425781 297.117188 907.484375 294.984375 Z M 907.484375 294.984375 " fill-opacity="1" fill-rule="nonzero"/><path fill="rgb(12.548828%, 22.349548%, 43.528748%)" d="M 1073.097656 47.261719 C 1076.976562 52.183594 1080.046875 57.28125 1085.308594 60.867188 C 1091.441406 65.050781 1101.4375 65.355469 1101.382812 74.835938 C 1101.375 76.5 1103.984375 76.5 1103.964844 74.835938 C 1103.898438 68.488281 1100.089844 64.953125 1094.449219 62.628906 C 1089.816406 60.71875 1085.609375 59.03125 1081.910156 55.515625 C 1078.980469 52.734375 1076.628906 49.402344 1074.035156 46.324219 C 1073.476562 45.664062 1072.582031 46.605469 1073.097656 47.261719 Z M 1073.097656 47.261719 " fill-opacity="1" fill-rule="nonzero"/><path fill="rgb(12.548828%, 22.349548%, 43.528748%)" d="M 1088.882812 51.585938 C 1091.578125 55.070312 1094.816406 57.570312 1098.792969 59.441406 C 1102.117188 61.003906 1108.832031 62.390625 1109.042969 66.898438 C 1109.105469 68.257812 1111.003906 68.222656 1111.125 66.898438 C 1111.464844 63.246094 1108.207031 61.363281 1105.296875 60.023438 C 1099.53125 57.367188 1094.191406 55.582031 1090.003906 50.460938 C 1089.347656 49.664062 1088.269531 50.792969 1088.882812 51.585938 Z M 1088.882812 51.585938 " fill-opacity="1" fill-rule="nonzero"/><path fill="rgb(12.548828%, 22.349548%, 43.528748%)" d="M 1112.4375 46.800781 C 1114.183594 47.511719 1115.472656 48.976562 1116.445312 50.542969 C 1117.300781 51.925781 1117.320312 54.253906 1118.496094 55.316406 C 1118.828125 55.613281 1119.34375 55.652344 1119.667969 55.316406 C 1121.1875 53.730469 1119.589844 50.777344 1118.640625 49.261719 C 1117.332031 47.179688 1115.355469 45.476562 1113.027344 44.664062 C 1111.652344 44.1875 1111.144531 46.277344 1112.4375 46.800781 Z M 1112.4375 46.800781 " fill-opacity="1" fill-rule="nonzero"/><path fill="rgb(12.548828%, 22.349548%, 43.528748%)" d="M 1072 525.234375 C 1066.140625 521.167969 1066.570312 511.679688 1065.527344 505.421875 C 1065.457031 504.996094 1064.734375 504.992188 1064.667969 505.421875 C 1063.589844 512.230469 1064.09375 523.273438 1070.898438 527.121094 C 1072.140625 527.824219 1073.140625 526.027344 1072 525.234375 Z M 1072 525.234375 " fill-opacity="1" fill-rule="nonzero"/><path fill="rgb(12.548828%, 22.349548%, 43.528748%)" d="M 747.476562 394.929688 C 747.089844 394.964844 746.699219 395 746.3125 395.035156 C 746.667969 395.894531 747.027344 396.75 747.378906 397.609375 C 750.8125 394.324219 754.167969 390.960938 757.582031 387.65625 C 760.765625 384.574219 764.460938 381.691406 766.984375 378.03125 C 767.617188 377.113281 766.414062 376.101562 765.539062 376.582031 C 761.640625 378.726562 758.476562 382.304688 755.304688 385.382812 C 751.898438 388.691406 748.53125 392.046875 745.246094 395.480469 C 743.742188 397.054688 746.40625 399.148438 747.613281 397.304688 C 747.871094 397.039062 748.132812 396.773438 748.390625 396.503906 C 749.164062 395.882812 748.324219 394.714844 747.476562 394.929688 Z M 747.476562 394.929688 " fill-opacity="1" fill-rule="nonzero"/><path fill="rgb(12.548828%, 22.349548%, 43.528748%)" d="M 1193 218.796875 C 1202.160156 219.816406 1210.523438 217.925781 1219.679688 220.613281 C 1226.46875 222.609375 1232.660156 224.890625 1239.664062 226.050781 C 1253.710938 228.371094 1252.4375 243.613281 1252.460938 254.738281 C 1252.476562 263.632812 1252.691406 272.527344 1252.792969 281.421875 C 1253.011719 300.40625 1252.042969 319.265625 1246.519531 337.542969 C 1243.53125 347.433594 1240.128906 357.964844 1231.003906 363.789062 C 1223.894531 368.328125 1216.269531 371.78125 1208.222656 374.277344 C 1206.796875 374.71875 1207.394531 376.734375 1208.828125 376.476562 C 1226.105469 373.390625 1239.871094 364.445312 1245.925781 347.789062 C 1254.25 324.894531 1255.53125 301.757812 1255.226562 277.585938 C 1255.085938 266.136719 1255.242188 254.617188 1254.628906 243.183594 C 1254.261719 236.394531 1253.414062 230.082031 1247.507812 226.183594 C 1241.210938 222.027344 1230.625 221.890625 1223.480469 219.390625 C 1212.585938 215.578125 1204.253906 216.914062 1193 217.304688 C 1192.019531 217.339844 1192.066406 218.691406 1193 218.796875 Z M 1193 218.796875 " fill-opacity="1" fill-rule="nonzero"/><path fill="rgb(12.548828%, 22.349548%, 43.528748%)" d="M 1206.335938 407.503906 C 1209.015625 405.933594 1213.226562 407.480469 1215.378906 404.804688 C 1215.691406 404.421875 1215.636719 403.742188 1215.066406 403.617188 C 1213.355469 403.25 1211.238281 403.421875 1209.480469 403.496094 C 1207.644531 403.574219 1205.988281 404.042969 1204.8125 405.53125 C 1203.972656 406.59375 1205.019531 408.277344 1206.335938 407.503906 Z M 1206.335938 407.503906 " fill-opacity="1" fill-rule="nonzero"/><path fill="rgb(97.648621%, 52.159119%, 61.959839%)" d="M 567.425781 435.210938 C 569.824219 436.089844 572.214844 436.996094 574.636719 437.804688 C 576.632812 438.472656 578.59375 439.425781 580.714844 439.011719 C 581.398438 438.878906 581.507812 438.003906 581.101562 437.546875 C 579.675781 435.972656 577.390625 435.554688 575.4375 434.902344 C 573.019531 434.097656 570.570312 433.394531 568.128906 432.660156 C 566.476562 432.160156 565.851562 434.632812 567.425781 435.210938 Z M 567.425781 435.210938 " fill-opacity="1" fill-rule="nonzero"/><path fill="rgb(97.648621%, 52.159119%, 61.959839%)" d="M 649.976562 448.566406 C 652.472656 448.027344 655.078125 448.027344 657.621094 448.089844 C 659.738281 448.140625 662.035156 448.484375 664.078125 447.8125 C 665.257812 447.425781 665.226562 445.855469 664.078125 445.453125 C 659.796875 443.960938 653.480469 444.515625 649.300781 446.109375 C 647.78125 446.691406 648.347656 448.917969 649.976562 448.566406 Z M 649.976562 448.566406 " fill-opacity="1" fill-rule="nonzero"/><path fill="rgb(97.648621%, 52.159119%, 61.959839%)" d="M 694.09375 443.34375 C 695.3125 443.34375 695.3125 441.453125 694.09375 441.453125 C 692.875 441.453125 692.875 443.34375 694.09375 443.34375 Z M 694.09375 443.34375 " fill-opacity="1" fill-rule="nonzero"/><path fill="rgb(97.648621%, 52.159119%, 61.959839%)" d="M 551.960938 401.359375 C 562.0625 421.296875 593.8125 426.589844 613.230469 430.15625 C 628.546875 432.964844 643.375 434.300781 658.953125 434.160156 C 675.308594 434.007812 689.6875 428.609375 705.628906 425.640625 C 706.703125 425.441406 706.34375 423.933594 705.386719 423.851562 C 692.03125 422.722656 679.871094 430.257812 666.574219 430.9375 C 651.453125 431.707031 636.433594 430.808594 621.5 428.464844 C 600.820312 425.21875 565.171875 421.066406 553.960938 400.191406 C 553.25 398.871094 551.289062 400.035156 551.960938 401.359375 Z M 551.960938 401.359375 " fill-opacity="1" fill-rule="nonzero"/><path fill="rgb(97.648621%, 52.159119%, 61.959839%)" d="M 727.890625 307.339844 C 731.871094 311.652344 742.039062 312.375 747.203125 313.328125 C 782.125 319.78125 818.484375 320.074219 853.855469 320.6875 C 905.683594 321.589844 958.230469 321.574219 1009.613281 313.8125 C 1028.507812 310.957031 1049.324219 307.269531 1065.839844 296.972656 C 1068.089844 295.570312 1070.1875 293.941406 1072.195312 292.21875 C 1073.234375 291.328125 1071.730469 289.839844 1070.699219 290.722656 C 1060.542969 299.4375 1047.28125 303.535156 1034.53125 306.765625 C 992.609375 317.386719 947.851562 318.214844 904.878906 318.753906 C 857.605469 319.351562 809.621094 319.164062 762.605469 313.5 C 752.972656 312.335938 737.796875 311.980469 729.429688 305.894531 C 729.644531 306.050781 729.4375 305.894531 729.390625 305.84375 C 728.460938 304.839844 726.96875 306.339844 727.890625 307.339844 Z M 727.890625 307.339844 " fill-opacity="1" fill-rule="nonzero"/><path fill="rgb(12.548828%, 22.349548%, 43.528748%)" d="M 1048.308594 410.347656 C 1061.601562 439.261719 1065.175781 471.878906 1076.050781 501.707031 C 1076.394531 502.640625 1077.667969 502.261719 1077.519531 501.304688 C 1075.074219 485.367188 1069.183594 469.804688 1065.003906 454.25 C 1060.871094 438.859375 1057.292969 423.605469 1050.21875 409.230469 C 1049.585938 407.941406 1047.71875 409.066406 1048.308594 410.347656 Z M 1048.308594 410.347656 " fill-opacity="1" fill-rule="nonzero"/><path fill="rgb(12.548828%, 22.349548%, 43.528748%)" d="M 1131.90625 400.253906 C 1126.484375 403.558594 1118.921875 408.273438 1116.238281 414.277344 C 1115.898438 415.035156 1116.628906 416.015625 1117.460938 415.5 C 1119.902344 413.988281 1121.976562 411.625 1124.050781 409.644531 C 1126.867188 406.960938 1129.925781 404.550781 1133.160156 402.394531 C 1134.476562 401.515625 1133.285156 399.414062 1131.90625 400.253906 Z M 1131.90625 400.253906 " fill-opacity="1" fill-rule="nonzero"/><path fill="rgb(12.548828%, 22.349548%, 43.528748%)" d="M 1068.9375 164.894531 C 1072.445312 160.511719 1079.171875 158.617188 1084.519531 160.140625 C 1084.644531 160.175781 1084.691406 159.992188 1084.574219 159.949219 C 1078.191406 157.417969 1071.878906 158.109375 1067.558594 163.832031 C 1066.964844 164.625 1068.316406 165.671875 1068.9375 164.894531 Z M 1068.9375 164.894531 " fill-opacity="1" fill-rule="nonzero"/><path fill="rgb(12.548828%, 22.349548%, 43.528748%)" d="M 1094.921875 166.527344 C 1097.40625 165.449219 1097.933594 176.527344 1098.359375 177.957031 C 1098.53125 178.535156 1099.078125 178.796875 1099.644531 178.6875 C 1105.742188 177.488281 1110.273438 171.929688 1115.476562 168.847656 C 1122.832031 164.5 1129.3125 158.898438 1135.578125 153.125 C 1145.753906 143.742188 1153.226562 130.703125 1159.40625 118.453125 C 1159.445312 118.375 1159.335938 118.3125 1159.292969 118.386719 C 1148.121094 138.734375 1130.445312 156.761719 1110.773438 168.90625 C 1108.960938 170.027344 1100.328125 177.25 1100.066406 176.394531 C 1099.113281 173.304688 1099.890625 169.625 1099.175781 166.398438 C 1098.496094 163.332031 1096.011719 163.460938 1093.9375 164.84375 C 1092.867188 165.558594 1093.78125 167.023438 1094.921875 166.527344 Z M 1094.921875 166.527344 " fill-opacity="1" fill-rule="nonzero"/><path fill="rgb(12.548828%, 22.349548%, 43.528748%)" d="M 968.144531 250.082031 C 969.621094 250.453125 971.433594 250.542969 972.910156 250.125 C 973.101562 250.066406 973.105469 249.785156 972.910156 249.734375 C 971.445312 249.335938 969.734375 249.585938 968.222656 249.5 C 967.882812 249.480469 967.820312 250.003906 968.144531 250.082031 Z M 968.144531 250.082031 " fill-opacity="1" fill-rule="nonzero"/><path fill="rgb(12.548828%, 22.349548%, 43.528748%)" d="M 967.097656 247.113281 C 969.21875 247.363281 971.386719 247.109375 973.515625 247.203125 C 973.578125 247.207031 973.589844 247.109375 973.53125 247.097656 C 971.453125 246.617188 969.210938 246.523438 967.101562 246.789062 C 966.890625 246.816406 966.890625 247.089844 967.097656 247.113281 Z M 967.097656 247.113281 " fill-opacity="1" fill-rule="nonzero"/><path fill="rgb(12.548828%, 22.349548%, 43.528748%)" d="M 943.238281 258.703125 C 944.652344 259.992188 947.601562 259.570312 949.140625 258.703125 C 949.332031 258.59375 949.226562 258.34375 949.039062 258.324219 C 948.222656 258.234375 947.34375 258.472656 946.535156 258.566406 C 945.464844 258.691406 944.519531 258.570312 943.484375 258.28125 C 943.246094 258.21875 943.046875 258.53125 943.238281 258.703125 Z M 943.238281 258.703125 " fill-opacity="1" fill-rule="nonzero"/><path fill="rgb(12.548828%, 22.349548%, 43.528748%)" d="M 942.949219 255.882812 C 943.847656 255.941406 944.703125 255.730469 945.617188 255.824219 C 946.742188 255.9375 947.839844 256.171875 948.972656 256.183594 C 949.136719 256.183594 949.207031 255.945312 949.058594 255.867188 C 947.433594 255.019531 944.480469 254.324219 942.816406 255.386719 C 942.589844 255.535156 942.691406 255.863281 942.949219 255.882812 Z M 942.949219 255.882812 " fill-opacity="1" fill-rule="nonzero"/><path fill="rgb(12.548828%, 22.349548%, 43.528748%)" d="M 966.171875 273.0625 C 968.953125 273.191406 972.242188 273.5625 974.96875 272.972656 C 975.207031 272.921875 975.179688 272.582031 974.96875 272.519531 C 972.304688 271.710938 968.925781 272.160156 966.171875 272.292969 C 965.675781 272.320312 965.675781 273.042969 966.171875 273.0625 Z M 966.171875 273.0625 " fill-opacity="1" fill-rule="nonzero"/><path fill="rgb(12.548828%, 22.349548%, 43.528748%)" d="M 962.175781 276.859375 C 964.523438 277.53125 967.125 277.765625 969.558594 277.769531 C 972.109375 277.773438 975.191406 277.839844 977.609375 276.988281 C 977.839844 276.90625 977.796875 276.585938 977.550781 276.566406 C 974.90625 276.382812 972.214844 276.691406 969.558594 276.71875 C 967.117188 276.742188 964.703125 276.296875 962.269531 276.160156 C 961.859375 276.136719 961.796875 276.75 962.175781 276.859375 Z M 962.175781 276.859375 " fill-opacity="1" fill-rule="nonzero"/><path fill="rgb(12.548828%, 22.349548%, 43.528748%)" d="M 924.269531 276.328125 C 924.933594 276.828125 925.886719 276.714844 926.679688 276.777344 C 927.886719 276.871094 929.160156 276.964844 930.304688 276.511719 C 930.472656 276.445312 930.519531 276.167969 930.304688 276.121094 C 928.445312 275.746094 926.324219 275.757812 924.429688 275.734375 C 924.085938 275.730469 924.03125 276.152344 924.269531 276.328125 Z M 924.269531 276.328125 " fill-opacity="1" fill-rule="nonzero"/><path fill="rgb(12.548828%, 22.349548%, 43.528748%)" d="M 924.5625 273.246094 C 926.59375 273.070312 928.496094 273.292969 930.515625 273.484375 C 930.664062 273.5 930.703125 273.285156 930.589844 273.214844 C 928.800781 272.128906 926.453125 272.203125 924.480469 272.652344 C 924.152344 272.730469 924.21875 273.277344 924.5625 273.246094 Z M 924.5625 273.246094 " fill-opacity="1" fill-rule="nonzero"/><path fill="rgb(12.548828%, 22.349548%, 43.528748%)" d="M 920.644531 289.101562 C 924.84375 289.863281 928.742188 289.898438 932.929688 288.945312 C 933.078125 288.914062 933.042969 288.6875 932.894531 288.6875 C 930.945312 288.679688 929.003906 288.921875 927.058594 289.023438 C 924.914062 289.136719 922.851562 288.621094 920.722656 288.523438 C 920.394531 288.511719 920.316406 289.042969 920.644531 289.101562 Z M 920.644531 289.101562 " fill-opacity="1" fill-rule="nonzero"/><path fill="rgb(12.548828%, 22.349548%, 43.528748%)" d="M 893.269531 298.113281 C 897.695312 299.609375 902.097656 299.316406 906.539062 298.019531 C 906.695312 297.972656 906.664062 297.734375 906.5 297.734375 C 904.414062 297.730469 902.367188 298.238281 900.292969 298.429688 C 898 298.636719 895.648438 298.03125 893.398438 297.648438 C 893.097656 297.597656 892.972656 298.011719 893.269531 298.113281 Z M 893.269531 298.113281 " fill-opacity="1" fill-rule="nonzero"/><path fill="rgb(12.548828%, 22.349548%, 43.528748%)" d="M 896.136719 294.925781 C 897.28125 295.125 898.515625 295.261719 899.65625 294.976562 C 899.785156 294.945312 899.800781 294.71875 899.65625 294.699219 C 898.515625 294.539062 897.328125 294.652344 896.179688 294.609375 C 896 294.601562 895.953125 294.894531 896.136719 294.925781 Z M 896.136719 294.925781 " fill-opacity="1" fill-rule="nonzero"/><path fill="rgb(12.548828%, 22.349548%, 43.528748%)" d="M 897.886719 285.859375 C 899.628906 286.199219 901.507812 286.378906 903.226562 285.839844 C 903.375 285.792969 903.339844 285.59375 903.191406 285.578125 C 901.472656 285.421875 899.757812 285.570312 898.042969 285.300781 C 897.679688 285.242188 897.519531 285.785156 897.886719 285.859375 Z M 897.886719 285.859375 " fill-opacity="1" fill-rule="nonzero"/><path fill="rgb(12.548828%, 22.349548%, 43.528748%)" d="M 897.898438 282.820312 C 899.988281 282.703125 902.039062 282.78125 904.117188 282.996094 C 904.257812 283.011719 904.285156 282.816406 904.183594 282.75 C 902.320312 281.507812 899.90625 281.71875 897.804688 282.128906 C 897.414062 282.207031 897.503906 282.84375 897.898438 282.820312 Z M 897.898438 282.820312 " fill-opacity="1" fill-rule="nonzero"/><path fill="rgb(89.7995%, 78.42865%, 10.978699%)" d="M 863.492188 299.066406 C 867.339844 300.632812 872.058594 300.5 876.066406 299.703125 C 876.296875 299.65625 876.304688 299.269531 876.066406 299.230469 C 874.117188 298.917969 872.179688 299.1875 870.21875 299.261719 C 867.988281 299.34375 865.824219 298.851562 863.632812 298.546875 C 863.292969 298.5 863.167969 298.933594 863.492188 299.066406 Z M 863.492188 299.066406 " fill-opacity="1" fill-rule="nonzero"/><path fill="rgb(89.7995%, 78.42865%, 10.978699%)" d="M 867.320312 296.320312 C 869.652344 296.960938 872.472656 296.957031 874.792969 296.273438 C 875.011719 296.210938 874.945312 295.933594 874.746094 295.90625 C 872.363281 295.601562 869.808594 295.777344 867.402344 295.726562 C 867.058594 295.71875 866.996094 296.230469 867.320312 296.320312 Z M 867.320312 296.320312 " fill-opacity="1" fill-rule="nonzero"/><path fill="rgb(89.7995%, 78.42865%, 10.978699%)" d="M 869.09375 285.65625 C 870.574219 286.054688 872.210938 286.277344 873.675781 285.71875 C 873.855469 285.652344 873.902344 285.351562 873.675781 285.304688 C 872.242188 285.007812 870.738281 285.167969 869.28125 284.972656 C 868.84375 284.910156 868.636719 285.535156 869.09375 285.65625 Z M 869.09375 285.65625 " fill-opacity="1" fill-rule="nonzero"/><path fill="rgb(89.7995%, 78.42865%, 10.978699%)" d="M 869.660156 282.859375 C 870.738281 283.371094 871.867188 283.332031 872.933594 282.789062 C 873.09375 282.707031 873.066406 282.425781 872.882812 282.394531 C 871.902344 282.226562 870.90625 282.503906 869.949219 282.171875 C 869.546875 282.035156 869.273438 282.679688 869.660156 282.859375 Z M 869.660156 282.859375 " fill-opacity="1" fill-rule="nonzero"/><path fill="rgb(89.7995%, 78.42865%, 10.978699%)" d="M 876.328125 285.378906 C 876.328125 285.359375 876.328125 285.335938 876.328125 285.3125 C 876.328125 285.234375 876.203125 285.234375 876.203125 285.3125 C 876.203125 285.335938 876.203125 285.359375 876.203125 285.378906 C 876.203125 285.460938 876.328125 285.460938 876.328125 285.378906 Z M 876.328125 285.378906 " fill-opacity="1" fill-rule="nonzero"/><path fill="rgb(89.7995%, 78.42865%, 10.978699%)" d="M 873.316406 275.960938 C 873.984375 276.5625 874.703125 277.097656 875.25 277.820312 C 876.070312 278.902344 875.6875 280.742188 875.332031 281.914062 C 875.269531 282.113281 875.402344 282.273438 875.578125 282.34375 C 876.078125 282.554688 876.574219 282.6875 877.097656 282.828125 C 877.203125 283.304688 877.308594 283.785156 877.414062 284.261719 C 877.136719 284.425781 876.855469 284.570312 876.566406 284.703125 C 876.273438 284.84375 876.417969 285.3125 876.730469 285.304688 C 877.570312 285.277344 878.632812 284.652344 878.875 283.777344 C 879.121094 282.878906 877.933594 282.324219 877.300781 282.097656 C 876.257812 281.722656 876.160156 282.003906 876.28125 280.800781 C 876.363281 279.984375 876.375 279.203125 876.230469 278.394531 C 875.996094 277.113281 874.585938 276.253906 873.605469 275.582031 C 873.382812 275.425781 873.117188 275.777344 873.316406 275.960938 Z M 873.316406 275.960938 " fill-opacity="1" fill-rule="nonzero"/><path fill="rgb(89.7995%, 78.42865%, 10.978699%)" d="M 879.308594 282.914062 C 880.78125 283.609375 883.0625 283.242188 884.394531 282.347656 C 884.605469 282.210938 884.511719 281.917969 884.269531 281.894531 C 883.472656 281.820312 882.691406 282.066406 881.914062 282.242188 C 881.066406 282.433594 880.195312 282.503906 879.339844 282.671875 C 879.230469 282.691406 879.207031 282.867188 879.308594 282.914062 Z M 879.308594 282.914062 " fill-opacity="1" fill-rule="nonzero"/><path fill="rgb(89.7995%, 78.42865%, 10.978699%)" d="M 874.945312 268.871094 C 876.46875 269.28125 878.375 269.625 879.773438 268.691406 C 879.878906 268.625 879.84375 268.445312 879.707031 268.445312 C 878.125 268.476562 876.660156 268.644531 875.070312 268.417969 C 874.78125 268.375 874.644531 268.792969 874.945312 268.871094 Z M 874.945312 268.871094 " fill-opacity="1" fill-rule="nonzero"/><path fill="rgb(89.7995%, 78.42865%, 10.978699%)" d="M 874.839844 266.367188 C 875.328125 266.792969 875.859375 266.804688 876.492188 266.820312 C 877.476562 266.84375 878.5625 266.941406 879.492188 266.578125 C 879.671875 266.507812 879.671875 266.28125 879.492188 266.210938 C 878.148438 265.691406 876.433594 265.992188 875.007812 265.957031 C 874.808594 265.953125 874.679688 266.230469 874.839844 266.367188 Z M 874.839844 266.367188 " fill-opacity="1" fill-rule="nonzero"/><path fill="rgb(89.7995%, 78.42865%, 10.978699%)" d="M 873.5 262.683594 C 874.082031 260.890625 875.8125 259.691406 877.640625 259.550781 C 878.828125 259.460938 880.0625 260.238281 880.738281 261.160156 C 881.191406 261.777344 881.140625 262.578125 881.441406 263.265625 C 881.519531 263.449219 881.777344 263.367188 881.832031 263.210938 C 882.585938 261.066406 880.015625 258.921875 878.054688 258.804688 C 875.8125 258.667969 873.304688 260.265625 873.070312 262.625 C 873.042969 262.882812 873.429688 262.910156 873.5 262.683594 Z M 873.5 262.683594 " fill-opacity="1" fill-rule="nonzero"/><path fill="rgb(89.7995%, 78.42865%, 10.978699%)" d="M 897.632812 273.605469 C 898.382812 273.671875 899.125 273.550781 899.875 273.558594 C 900.628906 273.570312 901.382812 273.613281 902.132812 273.632812 C 902.292969 273.640625 902.359375 273.410156 902.214844 273.335938 C 901.597656 273.011719 900.945312 272.84375 900.257812 272.753906 C 899.359375 272.640625 898.523438 272.921875 897.636719 272.945312 C 897.203125 272.957031 897.214844 273.570312 897.632812 273.605469 Z M 897.632812 273.605469 " fill-opacity="1" fill-rule="nonzero"/><path fill="rgb(12.548828%, 22.349548%, 43.528748%)" d="M 898.121094 265.128906 C 899.890625 264.789062 901.675781 264.773438 903.457031 264.570312 C 903.632812 264.550781 903.671875 264.328125 903.5 264.261719 C 901.824219 263.628906 899.601562 263.867188 897.945312 264.488281 C 897.546875 264.640625 897.695312 265.210938 898.121094 265.128906 Z M 898.121094 265.128906 " fill-opacity="1" fill-rule="nonzero"/><path fill="rgb(12.548828%, 22.349548%, 43.528748%)" d="M 891.964844 261.796875 C 893.078125 262.117188 894.046875 262.441406 895.132812 261.902344 C 895.277344 261.832031 895.207031 261.605469 895.054688 261.609375 C 894.035156 261.636719 893.027344 261.574219 892.011719 261.464844 C 891.816406 261.445312 891.789062 261.746094 891.964844 261.796875 Z M 891.964844 261.796875 " fill-opacity="1" fill-rule="nonzero"/><path fill="rgb(12.548828%, 22.349548%, 43.528748%)" d="M 896.519531 262.617188 C 896.820312 261.414062 897.144531 260.4375 898.191406 259.671875 C 899.265625 258.886719 900.398438 258.832031 901.671875 258.90625 C 901.78125 258.914062 901.832031 258.738281 901.726562 258.691406 C 899.253906 257.574219 895.605469 259.738281 896.105469 262.617188 C 896.140625 262.832031 896.46875 262.816406 896.519531 262.617188 Z M 896.519531 262.617188 " fill-opacity="1" fill-rule="nonzero"/><path fill="rgb(12.548828%, 22.349548%, 43.528748%)" d="M 896.054688 252.195312 C 897.449219 252.515625 898.585938 252.558594 900.015625 252.402344 C 900.164062 252.382812 900.238281 252.195312 900.09375 252.105469 C 899.609375 251.816406 899.164062 251.757812 898.59375 251.765625 C 897.773438 251.777344 896.929688 251.664062 896.113281 251.757812 C 895.878906 251.78125 895.789062 252.132812 896.054688 252.195312 Z M 896.054688 252.195312 " fill-opacity="1" fill-rule="nonzero"/><path fill="rgb(12.548828%, 22.349548%, 43.528748%)" d="M 896.574219 250.640625 C 897.261719 250.710938 897.863281 250.769531 898.535156 250.601562 C 898.675781 250.5625 898.675781 250.347656 898.535156 250.3125 C 897.863281 250.140625 897.261719 250.199219 896.574219 250.269531 C 896.335938 250.296875 896.335938 250.621094 896.574219 250.640625 Z M 896.574219 250.640625 " fill-opacity="1" fill-rule="nonzero"/><path fill="rgb(12.548828%, 22.349548%, 43.528748%)" d="M 915.167969 249.148438 C 916.691406 249.320312 918.300781 249.730469 919.765625 249.042969 C 919.914062 248.972656 919.882812 248.707031 919.714844 248.679688 C 918.988281 248.554688 918.25 248.574219 917.515625 248.582031 C 916.695312 248.589844 915.902344 248.460938 915.089844 248.601562 C 914.757812 248.660156 914.882812 249.113281 915.167969 249.148438 Z M 915.167969 249.148438 " fill-opacity="1" fill-rule="nonzero"/><path fill="rgb(12.548828%, 22.349548%, 43.528748%)" d="M 916.417969 246.9375 C 917.222656 247.113281 917.953125 247.167969 918.703125 246.785156 C 918.839844 246.714844 918.820312 246.460938 918.65625 246.4375 C 917.933594 246.335938 917.21875 246.472656 916.488281 246.425781 C 916.195312 246.410156 916.132812 246.875 916.417969 246.9375 Z M 916.417969 246.9375 " fill-opacity="1" fill-rule="nonzero"/><path fill="rgb(89.7995%, 78.42865%, 10.978699%)" d="M 876.152344 252.414062 C 877.527344 252.625 879.0625 253.078125 880.164062 251.972656 C 880.289062 251.84375 880.160156 251.628906 879.988281 251.675781 C 878.722656 252.003906 877.484375 251.929688 876.199219 252.066406 C 876.019531 252.085938 875.9375 252.382812 876.152344 252.414062 Z M 876.152344 252.414062 " fill-opacity="1" fill-rule="nonzero"/><path fill="rgb(89.7995%, 78.42865%, 10.978699%)" d="M 877.257812 250.339844 C 878.210938 250.335938 879.148438 250.214844 880.074219 250 C 880.210938 249.96875 880.21875 249.75 880.074219 249.722656 C 879.148438 249.546875 878.199219 249.621094 877.257812 249.648438 C 876.8125 249.660156 876.808594 250.34375 877.257812 250.339844 Z M 877.257812 250.339844 " fill-opacity="1" fill-rule="nonzero"/><path fill="rgb(89.7995%, 78.42865%, 10.978699%)" d="M 824.675781 278.503906 C 827.671875 279.070312 831.695312 279.800781 834.460938 278.160156 C 834.601562 278.074219 834.503906 277.867188 834.351562 277.902344 C 831.207031 278.632812 827.925781 278.40625 824.730469 278.089844 C 824.492188 278.066406 824.441406 278.460938 824.675781 278.503906 Z M 824.675781 278.503906 " fill-opacity="1" fill-rule="nonzero"/><path fill="rgb(89.7995%, 78.42865%, 10.978699%)" d="M 827.640625 275.148438 C 828.800781 275.15625 830 275.207031 831.121094 274.878906 C 831.292969 274.828125 831.25 274.59375 831.082031 274.578125 C 829.945312 274.484375 828.78125 274.570312 827.640625 274.578125 C 827.273438 274.582031 827.273438 275.144531 827.640625 275.148438 Z M 827.640625 275.148438 " fill-opacity="1" fill-rule="nonzero"/><path fill="rgb(89.7995%, 78.42865%, 10.978699%)" d="M 827.929688 259.703125 C 829.230469 260.441406 831.046875 259.839844 832.332031 259.332031 C 832.546875 259.25 832.539062 258.890625 832.273438 258.902344 C 830.851562 258.957031 829.464844 259.242188 828.039062 259.304688 C 827.832031 259.3125 827.738281 259.59375 827.929688 259.703125 Z M 827.929688 259.703125 " fill-opacity="1" fill-rule="nonzero"/><path fill="rgb(89.7995%, 78.42865%, 10.978699%)" d="M 827.171875 257.226562 C 829.308594 256.867188 831.457031 257.082031 833.59375 256.875 C 833.75 256.863281 833.777344 256.664062 833.632812 256.609375 C 831.621094 255.859375 829.039062 256.066406 827.050781 256.78125 C 826.765625 256.882812 826.878906 257.277344 827.171875 257.226562 Z M 827.171875 257.226562 " fill-opacity="1" fill-rule="nonzero"/><path fill="rgb(89.7995%, 78.42865%, 10.978699%)" d="M 828.535156 246.722656 C 829.394531 247.699219 832.179688 247.601562 832.800781 246.367188 C 832.863281 246.242188 832.761719 246.117188 832.628906 246.144531 C 831.925781 246.277344 831.28125 246.496094 830.550781 246.527344 C 829.921875 246.558594 829.320312 246.367188 828.699219 246.320312 C 828.480469 246.300781 828.410156 246.582031 828.535156 246.722656 Z M 828.535156 246.722656 " fill-opacity="1" fill-rule="nonzero"/><path fill="rgb(89.7995%, 78.42865%, 10.978699%)" d="M 810 264.84375 C 813.644531 266.71875 818.34375 266.742188 822.03125 264.949219 C 822.210938 264.863281 822.074219 264.628906 821.910156 264.652344 C 817.976562 265.273438 814.121094 266 810.351562 264.246094 C 809.949219 264.058594 809.597656 264.636719 810 264.84375 Z M 810 264.84375 " fill-opacity="1" fill-rule="nonzero"/><path fill="rgb(89.7995%, 78.42865%, 10.978699%)" d="M 815 262.296875 C 816.835938 262.835938 819.152344 262.894531 820.886719 261.984375 C 821.125 261.863281 820.996094 261.53125 820.761719 261.515625 C 818.863281 261.398438 817.085938 262.113281 815.144531 261.765625 C 814.796875 261.703125 814.648438 262.195312 815 262.296875 Z M 815 262.296875 " fill-opacity="1" fill-rule="nonzero"/><path fill="rgb(89.7995%, 78.42865%, 10.978699%)" d="M 814.742188 239.386719 C 816.019531 239.578125 817.28125 239.714844 818.558594 239.441406 C 818.71875 239.40625 818.71875 239.152344 818.558594 239.117188 C 817.316406 238.851562 816.066406 238.957031 814.808594 238.898438 C 814.53125 238.886719 814.464844 239.34375 814.742188 239.386719 Z M 814.742188 239.386719 " fill-opacity="1" fill-rule="nonzero"/><path fill="rgb(89.7995%, 78.42865%, 10.978699%)" d="M 813.808594 236.320312 C 814.816406 235.945312 815.828125 236.09375 816.875 236.023438 C 817.910156 235.957031 818.933594 235.894531 819.96875 235.859375 C 820.121094 235.855469 820.175781 235.65625 820.046875 235.574219 C 818.96875 234.914062 817.6875 235.25 816.496094 235.34375 C 815.445312 235.429688 814.414062 235.148438 813.589844 235.949219 C 813.4375 236.097656 813.59375 236.402344 813.808594 236.320312 Z M 813.808594 236.320312 " fill-opacity="1" fill-rule="nonzero"/><path fill="rgb(32.159424%, 78.819275%, 79.60968%)" d="M 733.144531 47.367188 C 736.191406 47.730469 738.96875 46.054688 741.265625 44.234375 C 742.722656 43.085938 746.449219 38.964844 743.667969 37.355469 C 743.402344 37.203125 743.132812 37.277344 742.902344 37.457031 C 742.253906 37.964844 742.03125 38.636719 741.707031 39.378906 C 741.199219 40.539062 740.242188 41.453125 739.3125 42.28125 C 737.636719 43.777344 735.199219 45.496094 732.957031 45.957031 C 732.09375 46.132812 732.402344 47.277344 733.144531 47.367188 Z M 733.144531 47.367188 " fill-opacity="1" fill-rule="nonzero"/><path fill="rgb(32.159424%, 78.819275%, 79.60968%)" d="M 755.996094 55.269531 C 757.113281 54.503906 758.164062 53.738281 758.964844 52.632812 C 759.796875 51.488281 760.019531 49.433594 758.722656 48.554688 C 758.511719 48.414062 758.152344 48.453125 757.984375 48.648438 C 757.292969 49.46875 757.285156 50.667969 756.691406 51.578125 C 756.128906 52.4375 755.257812 53.089844 754.652344 53.925781 C 754.074219 54.722656 755.203125 55.816406 755.996094 55.269531 Z M 755.996094 55.269531 " fill-opacity="1" fill-rule="nonzero"/></svg>